<?xml version="1.0" encoding="utf-8"?>
<svg viewBox="0 0 500 500" xmlns="http://www.w3.org/2000/svg">
  <g id="g10" transform="matrix(0.878098, 0, 0, -0.905412, 29.337469, 477.870422)" style="">
    <g id="g12" transform="scale(0.1)">
      <path d="m 1507.2,485.809 h 2281.29 c 41.09,0 74.4,33.32 74.4,74.41 V 3881.12 c 0,41.1 -33.31,74.42 -74.4,74.42 H 1507.2 c -41.1,0 -74.41,-33.32 -74.41,-74.42 V 560.219 c 0,-41.09 33.31,-74.41 74.41,-74.41" style="fill:#4c2e4d;fill-opacity:1;fill-rule:nonzero;stroke:none" id="path20"/>
      <path d="m 1708.88,635.25 h 1994.89 c 12.52,0 22.68,10.16 22.68,22.68 v 3034.52 c 0,12.52 -10.16,22.67 -22.68,22.67 H 1708.88 c -12.53,0 -22.68,-10.15 -22.68,-22.67 V 657.93 c 0,-12.52 10.15,-22.68 22.68,-22.68" style="fill:#372139;fill-opacity:1;fill-rule:nonzero;stroke:none" id="path22"/>
      <path d="m 1657.42,680.742 h 1980.85 c 16.4,0 29.7,13.289 29.7,29.699 V 3730.91 c 0,16.4 -13.3,29.7 -29.7,29.7 H 1657.42 c -16.4,0 -29.71,-13.3 -29.71,-29.7 V 710.441 c 0,-16.41 13.31,-29.699 29.71,-29.699" style="fill:#ffffff;fill-opacity:1;fill-rule:nonzero;stroke:none" id="path24"/>
      <path d="m 3344.38,3760.61 v 90.55 c 0,49.22 -39.89,89.11 -89.11,89.11 H 2194.36 c -49.22,0 -89.12,-39.89 -89.12,-89.11 v -90.55 h 1239.14" style="fill:#372139;fill-opacity:1;fill-rule:nonzero;stroke:none" id="path26"/>
      <path d="m 3344.38,3760.61 v -198.09 c 0,-49.21 -39.89,-89.11 -89.11,-89.11 H 2194.36 c -49.22,0 -89.12,39.9 -89.12,89.11 v 198.09 h 1239.14" style="fill:#ebecf9;fill-opacity:1;fill-rule:nonzero;stroke:none" id="path28"/>
      <path d="m 2085.97,3513.7 h 1123.75 c 52.13,0 94.38,42.26 94.38,94.39 v 305.72 c 0,52.13 -42.25,94.39 -94.38,94.39 H 2085.97 c -52.13,0 -94.39,-42.26 -94.39,-94.39 v -305.72 c 0,-52.13 42.26,-94.39 94.39,-94.39" style="fill:#7a7674;fill-opacity:1;fill-rule:nonzero;stroke:none" id="path30"/>
      <path d="m 2570.16,4099.04 c 0,42.91 34.77,77.69 77.68,77.69 42.91,0 77.7,-34.78 77.7,-77.69 0,-42.91 -34.79,-77.69 -77.7,-77.69 -42.91,0 -77.68,34.78 -77.68,77.69 z m -209.83,69.94 v -187.56 c 0,-31.98 25.93,-57.9 57.91,-57.9 h 459.2 c 31.98,0 57.91,25.92 57.91,57.9 v 187.56 c 0,31.98 -25.93,57.91 -57.91,57.91 h -459.2 c -31.98,0 -57.91,-25.93 -57.91,-57.91" style="fill:#7a7674;fill-opacity:1;fill-rule:nonzero;stroke:none" id="path32"/>
      <path d="M 3121.23,2942.96 H 1917.13" style="fill:none;stroke:#372139;stroke-width:30.1519;stroke-linecap:round;stroke-linejoin:miter;stroke-miterlimit:10;stroke-dasharray:none;stroke-opacity:1" id="path34"/>
      <path d="m 3382.15,2864.69 h -156.56 v 156.56 h 156.56 v -156.56" style="fill:#ff6c97;fill-opacity:1;fill-rule:nonzero;stroke:none" id="path36"/>
      <path d="m 3260.53,2965.15 52.76,-49 87.86,134.94" style="fill:none;stroke:#372139;stroke-width:30.1519;stroke-linecap:round;stroke-linejoin:round;stroke-miterlimit:10;stroke-dasharray:none;stroke-opacity:1" id="path38"/>
      <path d="M 3121.23,2679.78 H 1917.13" style="fill:none;stroke:#372139;stroke-width:30.1519;stroke-linecap:round;stroke-linejoin:miter;stroke-miterlimit:10;stroke-dasharray:none;stroke-opacity:1" id="path40"/>
      <path d="m 3382.15,2601.5 h -156.56 v 156.56 h 156.56 V 2601.5" style="fill:#ff6c97;fill-opacity:1;fill-rule:nonzero;stroke:none" id="path42"/>
      <path d="m 3260.53,2701.96 52.76,-49 87.86,134.95" style="fill:none;stroke:#372139;stroke-width:30.1519;stroke-linecap:round;stroke-linejoin:round;stroke-miterlimit:10;stroke-dasharray:none;stroke-opacity:1" id="path44"/>
      <path d="M 3121.23,2416.59 H 1917.13" style="fill:none;stroke:#372139;stroke-width:30.1519;stroke-linecap:round;stroke-linejoin:miter;stroke-miterlimit:10;stroke-dasharray:none;stroke-opacity:1" id="path46"/>
      <path d="m 3382.15,2338.31 h -156.56 v 156.56 h 156.56 v -156.56" style="fill:#ff6c97;fill-opacity:1;fill-rule:nonzero;stroke:none" id="path48"/>
      <path d="m 3260.53,2438.77 52.76,-48.99 87.86,134.94" style="fill:none;stroke:#372139;stroke-width:30.1519;stroke-linecap:round;stroke-linejoin:round;stroke-miterlimit:10;stroke-dasharray:none;stroke-opacity:1" id="path50"/>
      <path d="M 3121.23,2153.4 H 1917.13" style="fill:none;stroke:#372139;stroke-width:30.1519;stroke-linecap:round;stroke-linejoin:miter;stroke-miterlimit:10;stroke-dasharray:none;stroke-opacity:1" id="path52"/>
      <path d="m 3382.15,2075.12 h -156.56 v 156.56 h 156.56 v -156.56" style="fill:#ff6c97;fill-opacity:1;fill-rule:nonzero;stroke:none" id="path54"/>
      <path d="m 3260.53,2175.59 52.76,-49.01 87.86,134.95" style="fill:none;stroke:#372139;stroke-width:30.1519;stroke-linecap:round;stroke-linejoin:round;stroke-miterlimit:10;stroke-dasharray:none;stroke-opacity:1" id="path56"/>
      <path d="M 3121.23,1890.21 H 1917.13" style="fill:none;stroke:#372139;stroke-width:30.1519;stroke-linecap:round;stroke-linejoin:miter;stroke-miterlimit:10;stroke-dasharray:none;stroke-opacity:1" id="path58"/>
      <path d="m 3382.15,1811.93 h -156.56 v 156.57 h 156.56 v -156.57" style="fill:#ff6c97;fill-opacity:1;fill-rule:nonzero;stroke:none" id="path60"/>
      <path d="m 3260.53,1912.39 52.76,-48.99 87.86,134.94" style="fill:none;stroke:#372139;stroke-width:30.1519;stroke-linecap:round;stroke-linejoin:round;stroke-miterlimit:10;stroke-dasharray:none;stroke-opacity:1" id="path62"/>
      <path d="M 3121.23,1627.03 H 1917.13" style="fill:none;stroke:#372139;stroke-width:30.1519;stroke-linecap:round;stroke-linejoin:miter;stroke-miterlimit:10;stroke-dasharray:none;stroke-opacity:1" id="path64"/>
      <path d="m 3382.15,1548.75 h -156.56 v 156.55 h 156.56 v -156.55" style="fill:#ff6c97;fill-opacity:1;fill-rule:nonzero;stroke:none" id="path66"/>
      <path d="m 3260.53,1649.21 52.76,-49 87.86,134.95" style="fill:none;stroke:#372139;stroke-width:30.1519;stroke-linecap:round;stroke-linejoin:round;stroke-miterlimit:10;stroke-dasharray:none;stroke-opacity:1" id="path68"/>
      <path d="m 2014,441.191 c -2.89,-8.492 -14.86,-8.609 -17.93,-0.179 l -13.82,38.008 -23.06,63.402 -23.06,63.387 -23.05,63.402 -10,804.149 -3.23,310.33 -2.74,383.39 -5.19,380.11 179.18,1.86 5.19,-380.1 2.74,-383.39 3.23,-310.34 10,-804.161 -21.74,-63.848 -21.74,-63.859 -21.74,-63.86 -13.04,-38.301" style="fill:#ebecf9;fill-opacity:1;fill-rule:nonzero;stroke:none" id="path70"/>
      <path d="M 1913.08,669.211 1995,443.969 c 3.43,-9.418 16.79,-9.278 20.02,0.211 l 77.24,226.879 -179.18,-1.848" style="fill:#b3c8ef;fill-opacity:1;fill-rule:nonzero;stroke:none" id="path72"/>
      <path d="m 1976.3,669.859 -63.22,-0.648 11.52,-31.699 11.53,-31.703 11.53,-31.7 11.53,-31.687 34.61,-95.152 c 1.61,-4.43 8.2,-2.872 7.66,1.8 l -25.14,219.071 -0.02,1.718" style="fill:#9bbbf0;fill-opacity:1;fill-rule:nonzero;stroke:none" id="path74"/>
      <path d="m 1984.99,471.488 14.8,-40.707 c 1.84,-5.031 8.98,-4.961 10.71,0.117 l 13.96,41 c 1.26,3.723 -1.52,7.551 -5.43,7.512 l -28.77,-0.301 c -3.91,-0.039 -6.61,-3.929 -5.27,-7.621" style="fill:#372139;fill-opacity:1;fill-rule:nonzero;stroke:none" id="path76"/>
      <path d="m 2041.68,2682.2 1.58,-151.75 c 0.35,-34.01 -26.93,-61.88 -60.95,-62.23 v 0 c -34.01,-0.35 -61.87,26.94 -62.23,60.95 l -1.57,151.75 123.17,1.28" style="fill:#372139;fill-opacity:1;fill-rule:nonzero;stroke:none" id="path78"/>
      <path d="m 1885.12,2162.61 -5.46,401.84 c -0.07,6.33 5.01,11.52 11.35,11.59 l 180.35,1.87 c 6.34,0.06 11.52,-5.02 11.59,-11.35 l 5.46,-401.84 c 0.07,-6.33 -5.02,-11.53 -11.35,-11.59 l -180.36,-1.87 c -6.33,-0.07 -11.52,5.01 -11.58,11.35" style="fill:#b3c8ef;fill-opacity:1;fill-rule:nonzero;stroke:none" id="path80"/>
      <path d="m 1801.04,1894.84 -15.64,369.55 c -0.86,82.72 48.17,154.33 119.08,186.22" style="fill:none;stroke:#372139;stroke-width:44.4633;stroke-linecap:round;stroke-linejoin:miter;stroke-miterlimit:10;stroke-dasharray:none;stroke-opacity:1" id="path82"/>
      <path d="m 1891.01,2576.04 c -6.34,-0.07 -11.42,-5.26 -11.35,-11.59 l 5.46,-401.84 c 0.06,-6.33 5.25,-11.42 11.58,-11.35 l 55.04,0.57 -5.7,424.78 -55.03,-0.57" style="fill:#9bbbf0;fill-opacity:1;fill-rule:nonzero;stroke:none" id="path84"/>
      <path d="m 1302.46,844.57 156.59,-296.461 v 932.071 c -137.59,0 -223.29,-111.55 -223.29,-249.14 v -150.82 c 0,-83.208 23.09,-164.779 66.7,-235.65" style="fill:#f7a4b2;fill-opacity:1;fill-rule:nonzero;stroke:none" id="path86"/>
      <path d="m 1401.9,676.289 v 0 c 26.43,28.762 69.26,28.762 95.69,0 l 130.72,-142.277 v 0 c -47.75,-51.981 -125.18,-51.981 -172.92,0 l -53.49,58.207 c -21.32,23.222 -21.32,60.863 0,84.07" style="fill:#f7a4b2;fill-opacity:1;fill-rule:nonzero;stroke:none" id="path88"/>
      <path d="m 1457.26,522.781 v 33.071 c 0,15.617 12.66,28.277 28.28,28.277 h 175.28 v -4.449 c 0,-56.789 -46.04,-102.828 -102.83,-102.828 h -54.81 c -25.36,0 -45.92,20.558 -45.92,45.929" style="fill:#372139;fill-opacity:1;fill-rule:nonzero;stroke:none" id="path90"/>
      <path d="m 1386.82,699.969 c -24.06,-26.18 -24.06,-68.617 0,-94.797 l 60.3,-65.641 c 53.85,-58.609 141.14,-58.609 194.99,0 l -170.22,24.77 -60.31,65.64 c -24.04,26.18 -40.22,53.61 -16.17,79.789" style="fill:#372139;fill-opacity:1;fill-rule:nonzero;stroke:none" id="path92"/>
      <path d="m 1376.85,721.559 v 0 c 23.85,0 43.19,-19.329 43.19,-43.188 v -110.121 0 c -47.72,0 -86.39,38.68 -86.39,86.391 v 23.73 c 0,23.859 19.34,43.188 43.2,43.188" style="fill:#372139;fill-opacity:1;fill-rule:nonzero;stroke:none" id="path94"/>
      <path d="m 1382.82,497.332 h 21.27 v 98.367 h -21.27 v -98.367" style="fill:#372139;fill-opacity:1;fill-rule:nonzero;stroke:none" id="path96"/>
      <path d="m 1448.75,1309.59 v 0 c 15.22,0 27.57,12.34 27.57,27.57 v 48.24 c 0,15.24 -12.35,27.58 -27.57,27.58 v 0 c -15.23,0 -27.58,-12.34 -27.58,-27.58 v -48.24 c 0,-15.23 12.35,-27.57 27.58,-27.57" style="fill:#f7a4b2;fill-opacity:1;fill-rule:nonzero;stroke:none" id="path98"/>
      <path d="m 1323.44,1302.93 v 0 c 19.85,0 35.94,16.09 35.94,35.95 v 62.91 c 0,19.85 -16.09,35.94 -35.94,35.94 v 0 c -19.86,0 -35.95,-16.09 -35.95,-35.94 v -62.91 c 0,-19.86 16.09,-35.95 35.95,-35.95" style="fill:#fec4c1;fill-opacity:1;fill-rule:nonzero;stroke:none" id="path100"/>
      <path d="M 1161.33,722.809 1337.91,388.512 V 1439.52 c -155.16,0 -222.65,-125.78 -222.65,-280.93 V 988.531 c 0,-93.832 -3.1,-185.812 46.07,-265.722" style="fill:#fec4c1;fill-opacity:1;fill-rule:nonzero;stroke:none" id="path102"/>
      <path d="m 1273.47,533.051 v 0 c 29.79,32.429 78.1,32.429 107.9,0 l 147.4,-160.442 v 0 C 1474.92,314 1387.62,314 1333.78,372.609 l -60.31,65.641 c -24.06,26.172 -24.06,68.629 0,94.801" style="fill:#fec4c1;fill-opacity:1;fill-rule:nonzero;stroke:none" id="path104"/>
      <path d="m 1335.88,359.949 v 31.699 c 0,20.704 16.79,37.481 37.48,37.481 h 192.06 v -5.02 c 0,-64.039 -51.91,-115.961 -115.96,-115.961 h -61.78 c -28.61,0 -51.8,23.204 -51.8,51.801" style="fill:#4c2e4d;fill-opacity:1;fill-rule:nonzero;stroke:none" id="path106"/>
      <path d="m 1245.21,584.102 v 0 c 26.9,0 48.71,-21.813 48.71,-48.711 v -124.172 0 c -53.8,0 -97.42,43.613 -97.42,97.41 v 26.762 c 0,26.898 21.81,48.711 48.71,48.711" style="fill:#4c2e4d;fill-opacity:1;fill-rule:nonzero;stroke:none" id="path108"/>
      <path d="m 1251.95,331.262 h 23.99 V 442.18 h -23.99 V 331.262" style="fill:#4c2e4d;fill-opacity:1;fill-rule:nonzero;stroke:none" id="path110"/>
      <path d="m 1270.56,530.859 c -24.06,-26.168 -24.06,-68.609 0,-94.8 l 60.3,-65.637 c 53.85,-58.602 141.15,-58.602 194.99,0 l -170.22,24.777 -60.3,65.641 c -24.05,26.172 -40.23,53.601 -16.18,79.789" style="fill:#4c2e4d;fill-opacity:1;fill-rule:nonzero;stroke:none" id="path112"/>
      <path d="m 1216.34,1350.7 h 270.78 c 79.93,0 144.73,64.8 144.73,144.73 v 837.13 c 0,99.37 -80.57,179.94 -179.96,179.94 h -264.41 c -63.99,0 -115.87,-51.88 -115.87,-115.87 v -901.2 c 0,-79.93 64.8,-144.73 144.73,-144.73" style="fill:#1a6999;fill-opacity:1;fill-rule:nonzero;stroke:none" id="path114"/>
      <path d="m 1048.31,2355.23 v 0 c 0,-124.71 101.1,-225.82 225.82,-225.82 h 209.08 c 80.12,0 145.07,64.96 145.07,145.07 v 213.17 c 0,51.58 -41.82,93.4 -93.41,93.4 h -260.74 c -124.72,0 -225.82,-101.1 -225.82,-225.82" style="fill:#1a6999;fill-opacity:1;fill-rule:nonzero;stroke:none" id="path116"/>
      <path d="m 1343.77,2216.44 c 1.78,-31.81 2.55,-63.62 3.86,-95.41 l 2.2,-95.41 c 1.46,-63.62 1.65,-127.22 1.86,-190.83 -0.18,-63.61 -0.39,-127.21 -1.83,-190.82 l -2.2,-95.42 c -1.32,-31.79 -2.09,-63.6 -3.89,-95.41 -1.8,31.81 -2.58,63.62 -3.89,95.41 l -2.21,95.42 c -1.44,63.61 -1.64,127.21 -1.83,190.82 0.2,63.61 0.41,127.21 1.86,190.83 l 2.2,95.41 c 1.31,31.79 2.08,63.6 3.87,95.41" style="fill:#2290c6;fill-opacity:1;fill-rule:nonzero;stroke:none" id="path118"/>
      <path d="m 1465.6,2805.25 v -224.2 h 69.27 c 51.59,0 93.41,-41.82 93.41,-93.4 v -119.42 c 0.98,-4.86 1.65,-9.83 2.23,-14.82 15.43,16.87 24.91,39.27 24.91,63.93 v 387.91 H 1465.6" style="fill:#e46880;fill-opacity:1;fill-rule:nonzero;stroke:none" id="path120"/>
      <path d="m 1463.98,2669.03 h 106.46 c 13.5,0 24.43,10.94 24.43,24.44 v 417.38 c 0,56.6 -45.88,102.48 -102.48,102.48 l -313.69,18.5 c -45.05,0 -81.21,-55.01 -81.21,-100.07 v -96.23 c 0,-202.41 164.09,-366.5 366.49,-366.5" style="fill:#ff6c97;fill-opacity:1;fill-rule:nonzero;stroke:none" id="path122"/>
      <path d="m 1364.68,2723.94 h 201.19 c 11.93,0 21.6,9.67 21.6,21.61 v 369.07 c 0,50.05 -40.57,90.61 -90.61,90.61 h -132.18 v -481.29" style="fill:#e46880;fill-opacity:1;fill-rule:nonzero;stroke:none" id="path124"/>
      <path d="m 1592.62,2322.43 v 0 c 34.68,0 62.8,28.12 62.8,62.8 V 2571 h -125.61 v -185.77 c 0,-34.68 28.13,-62.8 62.81,-62.8" style="fill:#e46880;fill-opacity:1;fill-rule:nonzero;stroke:none" id="path126"/>
      <path d="m 1704.79,2903.12 v 0 c 0,79.01 -64.07,143.07 -143.08,143.07 h -356.08 c -50.77,0 -91.92,-41.15 -91.92,-91.91 v -73.79 c 0,-66.53 53.94,-120.45 120.46,-120.45 h 327.54 c 79.01,0 143.08,64.05 143.08,143.08" style="fill:#ff6c97;fill-opacity:1;fill-rule:nonzero;stroke:none" id="path128"/>
      <path d="m 1625.52,2903.11 v 0 c 0,79.02 -64.06,143.08 -143.08,143.08 h 79.27 c 79.01,0 143.08,-64.06 143.08,-143.08 v 0 c 0,-79.02 -64.07,-143.08 -143.08,-143.08 h -79.27 c 79.02,0 143.08,64.06 143.08,143.08" style="fill:#e46880;fill-opacity:1;fill-rule:nonzero;stroke:none" id="path130"/>
      <path d="m 1124.68,2325.29 v 0 c 88.19,-88.19 231.16,-88.19 319.35,0 l 135.36,135.36 c 56.65,56.65 56.65,148.51 0,205.16 l -150.73,150.72 c -36.47,36.48 -95.61,36.48 -132.09,0 l -171.89,-171.89 c -88.19,-88.18 -88.19,-231.16 0,-319.35" style="fill:#ff6c97;fill-opacity:1;fill-rule:nonzero;stroke:none" id="path132"/>
      <path d="m 1545.61,3011.88 v 0 c 32.23,16.47 45.02,55.97 28.54,88.21 l -35.8,70.06 c -54.15,105.94 -183.93,147.94 -289.86,93.79 v 0 l 95.47,-186.81 c 37.66,-73.7 127.94,-102.92 201.65,-65.25" style="fill:#fec4c1;fill-opacity:1;fill-rule:nonzero;stroke:none" id="path134"/>
      <path d="m 1379.11,3168.37 h 29.36 c 33.76,0 61.13,27.37 61.13,61.13 v 450.19 h -204.2 v -397.61 c 0,-62.8 50.91,-113.71 113.71,-113.71" style="fill:#fec4c1;fill-opacity:1;fill-rule:nonzero;stroke:none" id="path136"/>
      <path d="m 1401.49,3755.95 c -5.31,5.22 -9.66,11.21 -13.03,17.69 h -4.39 -171.36 l -0.01,-170.52 v -115.41 c 0.01,-102.59 85.69,-189.73 171.37,-189.73 85.69,0 171.37,87.14 171.37,189.73 v 115.41 1.5 l -153.95,151.33" style="fill:#fec4c1;fill-opacity:1;fill-rule:nonzero;stroke:none" id="path138"/>
      <path d="m 1212.7,3603.12 c 1.19,-33.06 1.7,-66.11 2.57,-99.17 0.21,-8.25 0.09,-16.59 0.83,-24.64 0.36,-4.05 0.35,-8.13 0.99,-12.14 l 2.04,-12.02 c 1.35,-7.99 3.9,-15.76 6.13,-23.52 2.96,-7.55 5.4,-15.31 9.27,-22.46 13.94,-29.24 34.96,-54.92 60.63,-74.42 13.12,-9.34 27.16,-17.32 42.16,-22.96 15.11,-5.26 30.88,-8.3 46.75,-8.53 15.87,0.26 31.63,3.27 46.74,8.54 15,5.64 29.04,13.62 42.17,22.96 25.67,19.49 46.68,45.18 60.61,74.42 3.87,7.15 6.3,14.9 9.27,22.45 2.24,7.76 4.79,15.53 6.13,23.53 l 2.05,12.01 c 0.64,4.01 0.63,8.09 0.99,12.14 0.73,8.05 0.63,16.39 0.82,24.64 0.88,33.06 1.39,66.11 2.59,99.17 1.2,-33.06 1.71,-66.11 2.59,-99.17 0.12,-8.27 0.43,-16.47 -0.06,-24.92 -0.25,-4.18 -0.13,-8.41 -0.67,-12.57 l -1.73,-12.49 c -1.18,-8.33 -3.55,-16.45 -5.65,-24.59 -2.83,-7.92 -5.16,-16.06 -8.94,-23.61 -13.38,-31.06 -35.58,-57.88 -62.23,-78.71 -13.71,-9.98 -28.49,-18.57 -44.42,-24.73 -16.07,-5.78 -33.01,-9.26 -50.26,-9.62 -17.25,0.39 -34.19,3.85 -50.25,9.63 -15.94,6.16 -30.71,14.75 -44.43,24.73 -26.66,20.82 -48.82,47.65 -62.2,78.71 -3.79,7.55 -6.13,15.69 -8.96,23.61 -2.1,8.13 -4.48,16.25 -5.64,24.58 l -1.74,12.49 c -0.55,4.16 -0.43,8.39 -0.67,12.57 -0.48,8.45 -0.19,16.65 -0.05,24.92 0.87,33.06 1.37,66.11 2.57,99.17" style="fill:#fec4c1;fill-opacity:1;fill-rule:nonzero;stroke:none" id="path140"/>
      <path d="m 1429.99,3372.59 h 12.78 c 39.37,0 71.27,31.91 71.27,71.27 v 3.35 h -155.32 v -3.35 c 0,-39.36 31.91,-71.27 71.27,-71.27" style="fill:#ffffff;fill-opacity:1;fill-rule:nonzero;stroke:none" id="path142"/>
      <path d="m 1210.94,3775.41 h 101.25 v -456.72 c -56.85,31.1 -101.25,96.93 -101.25,170.78 v 115.41 170.53" style="fill:#f7a4b2;fill-opacity:1;fill-rule:nonzero;stroke:none" id="path144"/>
      <path d="m 1261.47,3609.2 90.49,25.85 c 52,14.85 87.85,62.37 87.85,116.45 v 0 c 0,36.64 -29.71,66.35 -66.35,66.35 h -93.02 c -39.65,0 -71.8,-32.14 -71.8,-71.79 v -97.01 c 0,-27.53 26.36,-47.41 52.83,-39.85" style="fill:#f7a4b2;fill-opacity:1;fill-rule:nonzero;stroke:none" id="path146"/>
      <path d="m 1453.33,3311.99 c -21.51,-10.55 -45.74,-15.96 -69.26,-14.01 -18.98,0 -37.92,4.49 -55.97,12.26 31.19,-30.34 70.83,-49.25 110.58,-49.25 10.35,0 20.7,1.3 30.92,3.72 v 56.33 c -5.25,-3.31 -10.67,-6.35 -16.27,-9.05" style="fill:#f7a4b2;fill-opacity:1;fill-rule:nonzero;stroke:none" id="path148"/>
      <path d="m 1289.39,3327.07 c -26.66,20.82 -48.82,47.65 -62.2,78.71 -3.79,7.55 -6.13,15.69 -8.96,23.61 -2.1,8.13 -4.48,16.25 -5.64,24.58 l -1.74,12.49 c -0.55,4.16 -0.43,8.39 -0.67,12.57 -0.48,8.45 -0.19,16.65 -0.05,24.92 0.87,33.06 1.38,66.11 2.57,99.17 l 0.01,90.71 h -17.53 V 3523.31 3407.9 c 0,-57.1 26.54,-109.41 64.86,-144.58 13.92,-12.77 36.38,-2.92 36.38,15.97 v 42.95 c -2.36,1.59 -4.73,3.16 -7.03,4.83" style="fill:#f7a4b2;fill-opacity:1;fill-rule:nonzero;stroke:none" id="path150"/>
      <path d="m 1405.63,2760.04 c 47.08,3.06 94.17,5.12 141.26,6.16 11.96,0.35 23.28,0.43 34.24,2.32 11.15,1.41 21.8,5.13 32.14,9.21 20.52,8.76 38.77,22.56 52.94,39.7 13.99,17.27 24.05,37.8 28.51,59.67 4.39,21.85 3.84,44.88 -2.34,66.54 -12.09,43.4 -46.18,80.94 -90.76,96.91 23.14,-4.98 44.91,-16.6 63.01,-32.63 17.84,-16.3 31.91,-37.24 39.57,-60.62 8.22,-23.26 9.26,-48.68 5.25,-73.06 -4.47,-24.41 -15.56,-47.45 -30.99,-66.87 -16.04,-18.92 -36.47,-34.25 -59.49,-43.48 -11.63,-4.21 -23.55,-7.88 -35.86,-9.09 -12.31,-1.79 -24.67,-1.22 -36.22,-0.92 -47.09,1.04 -94.18,3.09 -141.26,6.16" style="fill:#e46880;fill-opacity:1;fill-rule:nonzero;stroke:none" id="path152"/>
      <path d="m 1176.16,2932.09 c 59.1,16.09 110.34,16.94 114.44,1.88 4.1,-15.05 -40.49,-40.3 -99.59,-56.4" style="fill:#ff6c97;fill-opacity:1;fill-rule:nonzero;stroke:none" id="path154"/>
      <path d="m 1555.57,3453.96 c -1.17,-8.32 -3.55,-16.44 -5.65,-24.58 -2.83,-7.92 -5.16,-16.06 -8.95,-23.61 -13.37,-31.06 -35.57,-57.88 -62.22,-78.71 -2.99,-2.18 -6.05,-4.26 -9.15,-6.29 v -72.1 c 14.94,-10.42 28.71,-22.78 40.81,-37.01 17.27,-3.08 33.04,-10.41 46.15,-20.97 v 270.44 l -0.99,-7.17" style="fill:#000000;fill-opacity:1;fill-rule:nonzero;stroke:none" id="path156"/>
      <path d="m 1231.53,3651.48 90.49,25.85 c 51.99,14.85 87.84,62.37 87.84,116.44 v 0 c 0,36.65 -29.7,66.36 -66.35,66.36 h -93.02 c -39.65,0 -71.79,-32.14 -71.79,-71.79 v -97.01 c 0,-27.54 26.35,-47.41 52.83,-39.85" style="fill:#000000;fill-opacity:1;fill-rule:nonzero;stroke:none" id="path158"/>
      <path d="m 1135.48,2880 v 0 c 82.03,0 148.52,66.49 148.52,148.52 v 831.4 0 c -82.03,0 -148.52,-66.5 -148.52,-148.52 V 2880" style="fill:#000000;fill-opacity:1;fill-rule:nonzero;stroke:none" id="path160"/>
      <path d="m 1248.49,3263.94 c 5.74,2.94 11.56,5.58 17.43,7.95 -0.3,3.37 -0.52,6.75 -0.52,10.19 v 73.3 c -31.64,34.52 -52.7,81.5 -52.7,132.33 v 115.41 l 0.01,170.52 h 171.36 121.17 c -51.44,73.48 -136.66,121.58 -233.16,121.58 v 0 c -121.87,0 -220.67,-98.8 -220.67,-220.67 v -314.2 c 0,-60.44 10.65,-118.38 30.11,-172.1 9.63,7.17 20.68,12.75 32.95,16.09 4.58,1.25 9.16,2.03 13.73,2.61 13.85,14.89 31.35,24.88 50.5,24.88 l 88.87,-5.24 -19.08,37.35 v 0" style="fill:#000000;fill-opacity:1;fill-rule:nonzero;stroke:none" id="path162"/>
      <path d="m 1464.4,3876.37 c -58.3,0 -105.86,-45.38 -109.61,-102.73 h 29.28 171.37 v -170.52 -0.02 c 1.2,-33.05 1.71,-66.1 2.59,-99.15 0.12,-8.27 0.43,-16.47 -0.06,-24.92 -0.25,-4.18 -0.13,-8.41 -0.67,-12.57 l -1.73,-12.5 c -1.17,-8.32 -3.55,-16.44 -5.65,-24.58 -2.83,-7.92 -5.16,-16.06 -8.95,-23.61 -13.37,-31.06 -35.57,-57.88 -62.22,-78.71 -2.99,-2.18 -6.05,-4.26 -9.15,-6.29 v -12.43 c 86.19,42.53 145.5,131.26 145.5,233.88 v 183.44 c 0,83.24 -67.47,150.71 -150.7,150.71" style="fill:#000000;fill-opacity:1;fill-rule:nonzero;stroke:none" id="path164"/>
      <path d="M 1401.49,3755.95 1558.11,3602 c 21.19,-20.83 56.99,-5.82 56.99,23.9 v 86.13 c 0,90.76 -73.58,164.34 -164.34,164.34 v 0 c -38.82,0 -70.28,-31.47 -70.28,-70.29 v 0 c 0,-18.85 7.57,-36.91 21.01,-50.13" style="fill:#000000;fill-opacity:1;fill-rule:nonzero;stroke:none" id="path166"/>
      <path d="m 1584.97,3169.48 c -2.99,0.29 -5.96,0.4 -8.92,0.42 11.82,-16.7 18.82,-37.03 18.82,-59.05 v -68.67 c 28.67,-6.85 54,-22.28 73.09,-43.49 l 5.74,62.67 c 5.35,54.35 -34.36,102.76 -88.73,108.12" style="fill:#e46880;fill-opacity:1;fill-rule:nonzero;stroke:none" id="path168"/>
      <path d="m 1918.57,2674.73 -51.19,23.27 c -12.48,5.4 -26.98,-0.34 -32.38,-12.82 -5.41,-12.49 0.33,-26.99 12.82,-32.4 l 54.02,-24.55 c 5.68,-2.46 11.75,-2.52 17.22,-0.77 l -0.49,47.27" style="fill:#f7a4b2;fill-opacity:1;fill-rule:nonzero;stroke:none" id="path170"/>
      <path d="m 1714.19,2625.5 109.94,20.96 c 29.01,5.54 48.57,32.9 44.4,62.15 l -3.1,21.7 c -3.03,21.24 -22.25,36.34 -43.59,34.25 l -121.66,-11.9 14.01,-127.16" style="fill:#fec4c1;fill-opacity:1;fill-rule:nonzero;stroke:none" id="path172"/>
      <path d="m 1781.46,2678.98 251.57,-38.55 8.63,55.69 c 3.78,24.41 -12.97,47.25 -37.38,50.98 l -168.36,25.74 c -21.53,3.34 -41.67,-11.4 -45.01,-32.92 l -9.45,-60.94" style="fill:#fec4c1;fill-opacity:1;fill-rule:nonzero;stroke:none" id="path174"/>
      <path d="m 1983.37,2658.8 117.85,-48.86 c 15.8,-6.15 33.71,0.45 41.74,15.38 v 0 c 8.04,14.93 3.66,33.51 -10.18,43.3 l -105.9,71.09 c -16.45,11.63 -39.38,6.24 -48.92,-11.51 L 1966,2705.97 c -9.54,-17.75 -1.41,-39.86 17.37,-47.17" style="fill:#fec4c1;fill-opacity:1;fill-rule:nonzero;stroke:none" id="path176"/>
      <path d="m 1177.88,2574.88 512.72,199.49 c 51.01,19.52 78.34,-13.29 97.85,-64.3 v 0 c 19.51,-51.02 23.82,-100.93 -27.2,-120.44 L 1346.76,2427.1 c -60.8,-22.93 -128.26,10.6 -146.71,72.9 l -22.17,74.88" style="fill:#ff6c97;fill-opacity:1;fill-rule:nonzero;stroke:none" id="path178"/>
      <path d="m 1690.6,2774.37 c 8.75,3.53 17.96,6.27 27.6,6.73 9.62,0.5 19.51,-1.82 28.05,-6.61 17.25,-9.84 28.36,-26.88 37.23,-43.7 8.64,-17.16 15.47,-35.06 20,-53.96 4.33,-18.66 6.25,-39.56 -2.11,-58.99 -4.15,-9.54 -11.04,-18.07 -19.42,-24.23 -8.34,-6.07 -18.16,-10.12 -26.64,-13.52 l -52.57,-21.16 -105.31,-41.92 c -70.27,-27.77 -140.73,-55.08 -211.36,-81.92 l -26.48,-10.07 c -8.61,-3.21 -18.15,-6.84 -28.01,-8.56 -19.53,-3.83 -40.01,-2.74 -58.73,3.65 -37.86,11.76 -67.71,44.66 -76.19,82.36 l 2.92,-1.78 -0.46,-0.07 -2.42,-0.39 -0.5,2.23 c -2.69,12.13 -5.88,24.17 -9.11,36.2 l -9.28,36.2 -0.01,0.06 0.05,0.02 1.62,0.56 -1.57,-0.69 0.04,0.09 c 7.91,-23.65 16.27,-47.14 23.16,-71.14 l -2.93,1.84 0.45,0.1 2.25,0.49 0.67,-2.27 c 10.63,-35.61 39.45,-64.33 74.34,-74.06 17.28,-5.22 35.8,-5.49 53.17,-1.44 8.71,1.84 16.85,5.26 25.78,8.95 l 26.27,10.62 c 70.06,28.32 140.3,56.18 210.71,83.58 l 105.72,40.83 52.94,20.21 c 9.13,3.38 17.01,6.34 24.2,11.12 7.04,4.81 12.62,11.29 16.29,18.9 7.4,15.39 6.83,34.37 3.26,52.22 -3.51,18.03 -9.97,35.77 -17.21,52.84 -7.61,16.72 -17.26,33.4 -32.74,43.44 -7.69,4.94 -16.79,7.57 -26.06,7.78 -9.29,0.27 -18.6,-1.69 -27.61,-4.54" style="fill:#e46880;fill-opacity:1;fill-rule:nonzero;stroke:none" id="path180"/>
      <path d="m 1198.65,2503.11 -153.61,579.82 c -14.36,52.7 16.74,107.06 69.43,121.41 v 0 c 52.71,14.36 107.06,-16.73 121.42,-69.44 l 126.57,-478.42 c 16.78,-62.76 -23.27,-126.57 -87.1,-138.75 l -76.71,-14.62" style="fill:#ff6c97;fill-opacity:1;fill-rule:nonzero;stroke:none" id="path182"/>
      <path d="m 1234.36,3096.56 c -1.27,-14.92 -52.84,-22.71 -115.17,-17.4 -62.32,5.3 -111.83,21.69 -110.56,36.61 1.27,14.92 52.83,22.71 115.16,17.4 62.33,-5.3 111.84,-21.7 110.57,-36.61" style="fill:#ff6c97;fill-opacity:1;fill-rule:nonzero;stroke:none" id="path184"/>
      <path d="m 1290.6,2933.97 c 4.1,-15.05 -40.49,-40.3 -99.59,-56.4 -59.11,-16.09 -110.35,-16.94 -114.45,-1.88 -4.1,15.05 40.49,40.3 99.6,56.4 59.1,16.09 110.34,16.94 114.44,1.88" style="fill:#ff6c97;fill-opacity:1;fill-rule:nonzero;stroke:none" id="path186"/>
      <path d="m 1234.36,3096.56 c -1.27,-14.92 -52.84,-22.71 -115.17,-17.4 -62.32,5.3 -111.83,21.69 -110.56,36.61 1.27,14.92 52.83,22.71 115.16,17.4 62.33,-5.3 111.84,-21.7 110.57,-36.61" style="fill:#ff6c97;fill-opacity:1;fill-rule:nonzero;stroke:none" id="path188"/>
      <path d="m 1290.6,2933.97 c 4.1,-15.05 -40.49,-40.3 -99.59,-56.4 -59.11,-16.09 -110.35,-16.94 -114.45,-1.88 -4.1,15.05 40.49,40.3 99.6,56.4 59.1,16.09 110.34,16.94 114.44,1.88" style="fill:#ff6c97;fill-opacity:1;fill-rule:nonzero;stroke:none" id="path190"/>
      <path d="m 1114.47,3204.34 c 25.75,9.06 55.74,5.65 80.18,-8.24 12.19,-7.05 22.89,-16.76 31.27,-28.26 8.47,-11.27 14.16,-25.33 17.67,-38.36 15.27,-52.01 29.32,-104.34 43.37,-156.67 27.51,-104.83 53.85,-209.96 75.5,-316.33 -33.78,103.16 -62.87,207.54 -90.8,312.24 -13.67,52.43 -27.32,104.86 -39.78,157.61 -2.9,13.25 -6.98,24.91 -14.17,35.85 -6.99,10.8 -16.32,20.12 -27.13,27.36 -21.44,15 -49.52,20.36 -76.11,14.8" style="fill:#e46880;fill-opacity:1;fill-rule:nonzero;stroke:none" id="path192"/>
      <path d="m 1290.61,2933.97 c 1.23,-2.23 1.56,-5.47 0.64,-8.15 -0.7,-2.87 -2.2,-5.17 -3.59,-7.63 -3.2,-4.39 -6.88,-8.47 -10.96,-11.72 -8.03,-6.86 -17.05,-11.98 -26.32,-16.26 -9.29,-4.27 -18.96,-7.46 -28.9,-9.63 -9.87,-2.31 -20.05,-3.48 -30.47,-3.01 8.67,5.9 17.57,10.28 26.39,14.69 8.79,4.43 17.68,8.34 26.43,12.38 8.77,3.98 17.49,7.91 25.99,12.06 4.29,2.11 8.34,4.34 12.27,6.87 3.67,2.66 7.62,5.18 8.52,10.4" style="fill:#e46880;fill-opacity:1;fill-rule:nonzero;stroke:none" id="path194"/>
      <path d="m 1234.36,3096.56 c 0.37,-2.55 -0.64,-5.8 -2.56,-7.87 -1.77,-2.43 -4.08,-3.96 -6.31,-5.69 -4.65,-2.98 -9.61,-5.28 -14.66,-6.9 -10.07,-3.49 -20.44,-5.06 -30.75,-5.8 -10.32,-0.7 -20.64,-0.32 -30.83,1.11 -10.2,1.28 -20.29,3.71 -30.06,7.75 10.32,2.53 20.34,3.57 30.29,4.62 9.94,1.08 19.8,1.65 29.57,2.34 l 29.11,2.01 c 4.81,0.48 9.56,0.98 14.19,1.95 4.5,1.12 9.26,1.89 12.01,6.48" style="fill:#e46880;fill-opacity:1;fill-rule:nonzero;stroke:none" id="path196"/>
      <path d="m 2601.04,345.352 c -4.32,-4.43 -8.03,-9.313 -11.08,-14.532 l -4.65,2.41 c -0.67,2.969 -3.49,5.02 -6.59,4.661 -3.31,-0.391 -5.67,-3.391 -5.29,-6.7 0.39,-3.312 3.39,-5.671 6.7,-5.281 0.65,0.07 1.27,0.25 1.83,0.52 l 4.51,-2.348 c -2.51,-5.543 -4.32,-11.383 -5.39,-17.434 l 7.47,-1.316 c 2.3,13.059 8.5,25.066 17.92,34.727 l -5.43,5.293" style="fill:#f9fbfc;fill-opacity:1;fill-rule:nonzero;stroke:none" id="path198"/>
      <path d="m 2655.92,368.371 c -1.71,0 -3.41,-0.062 -5.09,-0.172 l -0.74,6.262 c 1.87,1.5 2.96,3.891 2.65,6.449 -0.45,3.922 -4.02,6.742 -7.95,6.281 -3.93,-0.461 -6.74,-4.031 -6.27,-7.961 0.3,-2.539 1.89,-4.609 4.04,-5.64 l 0.73,-6.238 c -7.14,-1.161 -14.02,-3.321 -20.59,-6.454 l 3.27,-6.847 c 9.34,4.48 19.41,6.738 29.95,6.738 4.97,0 9.93,-0.527 14.75,-1.578 l 1.61,7.41 c -5.36,1.16 -10.85,1.75 -16.36,1.75" style="fill:#f9fbfc;fill-opacity:1;fill-rule:nonzero;stroke:none" id="path200"/>
      <path d="m 2721.94,342.898 c 3.31,0.403 5.67,3.411 5.26,6.723 -0.4,3.309 -3.41,5.66 -6.72,5.25 -3.1,-0.379 -5.35,-3.031 -5.3,-6.082 l -4.16,-3.629 c -4.18,4.289 -8.9,8.121 -14.08,11.391 l -4.04,-6.41 c 11.35,-7.149 20.21,-17.27 25.64,-29.25 l 6.9,3.121 c -2.51,5.539 -5.67,10.718 -9.42,15.449 l 4.02,3.508 c 0.61,-0.117 1.25,-0.16 1.9,-0.071" style="fill:#f9fbfc;fill-opacity:1;fill-rule:nonzero;stroke:none" id="path202"/>
      <path d="m 2650.45,266.289 c -3.86,-0.238 -7.75,-0.348 -11.57,-0.348 -8.8,0 -17.34,0.598 -24.79,1.789 -3.9,0.622 -8.46,1.551 -12.7,2.918 10.47,-18.609 30.69,-31.25 53.88,-31.25 28.56,0 52.63,19.161 59.5,45.032 -6.82,-4.489 -15.05,-8.25 -24.58,-11.219 -11.8,-3.68 -25.55,-6.07 -39.74,-6.922" style="fill:#f9fbfc;fill-opacity:1;fill-rule:nonzero;stroke:none" id="path204"/>
      <path d="m 2681.7,297.141 c -7.5,0 -13.6,6.101 -13.6,13.601 0,7.5 6.1,13.61 13.6,13.61 7.5,0 13.6,-6.11 13.6,-13.61 0,-7.5 -6.1,-13.601 -13.6,-13.601 z m -47.37,-9.082 c -10.2,0 -18.5,8.3 -18.5,18.492 0,10.211 8.3,18.508 18.5,18.508 10.19,0 18.49,-8.297 18.49,-18.508 0,-10.192 -8.3,-18.492 -18.49,-18.492 z m 21.59,65.14 c -33.52,0 -60.79,-26.66 -60.79,-59.429 0,-4.25 0.46,-8.489 1.36,-12.61 6.74,-4.828 27.06,-8.898 53.48,-7.308 28.8,1.738 52.97,9.578 66.72,21.589 -0.05,1.938 -0.21,3.899 -0.45,5.809 -3.8,29.621 -29.74,51.949 -60.32,51.949" style="fill:#f9fbfc;fill-opacity:1;fill-rule:nonzero;stroke:none" id="path206"/>
      <path d="m 2815.96,334.531 c -2.95,1.16 -8.06,3.098 -13.83,2.379 -5.51,-0.691 -8.44,-3.398 -8.44,-10.058 v -8.672 h 22.29 v -17.16 h -22.29 v -54.559 h -19.31 v 54.559 h -13.39 v 17.16 h 13.39 v 8.89 c 0,16.801 8.95,27.821 25.68,27.821 6.42,0 11.57,-1.211 15.9,-3.071 v -17.289" style="fill:#f9fbfc;fill-opacity:1;fill-rule:nonzero;stroke:none" id="path208"/>
      <path d="m 2862.98,301.219 c -1.77,0.293 -3.58,0.461 -5.26,0.461 -8.95,0 -15.09,-5.481 -15.09,-16.129 v -39.09 h -19.33 v 71.719 h 18.73 v -7.84 c 4.51,6.73 11.4,9.769 20.21,9.769 4.14,0 8.47,-1.277 10.94,-3.367 l -10.2,-15.523" style="fill:#f9fbfc;fill-opacity:1;fill-rule:nonzero;stroke:none" id="path210"/>
      <path d="m 2888.52,289.09 h 31.74 c -1.77,9.18 -7.32,14.371 -15.61,14.371 -9.1,0 -14.44,-5.481 -16.13,-14.371 z m 51.14,-6.66 c 0,-2.219 -0.16,-4.879 -0.37,-6.508 h -50.85 c 2.07,-10.363 9.32,-14.883 18.43,-14.883 6.22,0 12.94,2.52 18.13,6.891 l 11.33,-12.43 c -8.15,-7.48 -18.51,-10.891 -30.57,-10.891 -21.98,0 -37.23,14.961 -37.23,37.532 0,22.578 14.8,37.968 36.26,37.968 20.65,0 34.79,-15.32 34.87,-37.679" style="fill:#f9fbfc;fill-opacity:1;fill-rule:nonzero;stroke:none" id="path212"/>
      <path d="m 2965.05,289.09 h 31.75 c -1.78,9.18 -7.34,14.371 -15.62,14.371 -9.1,0 -14.43,-5.481 -16.13,-14.371 z m 51.14,-6.66 c 0,-2.219 -0.15,-4.879 -0.37,-6.508 h -50.85 c 2.07,-10.363 9.33,-14.883 18.43,-14.883 6.22,0 12.96,2.52 18.13,6.891 l 11.33,-12.43 c -8.14,-7.48 -18.5,-10.891 -30.57,-10.891 -21.99,0 -37.23,14.961 -37.23,37.532 0,22.578 14.8,37.968 36.27,37.968 20.64,0 34.78,-15.32 34.86,-37.679" style="fill:#f9fbfc;fill-opacity:1;fill-rule:nonzero;stroke:none" id="path214"/>
      <path d="m 3042.87,282.359 c 0,-11.32 7.48,-19.757 18.44,-19.757 11.4,0 18.49,8.808 18.49,19.757 0,10.95 -7.09,19.762 -18.49,19.762 -10.96,0 -18.44,-8.441 -18.44,-19.762 z m 56.78,0 c 0,-21.539 -14.95,-37.75 -34.72,-37.75 -9.62,0 -16.43,3.782 -21.09,9.332 v -37.082 h -19.25 V 318.18 h 18.88 v -7.918 c 4.66,5.847 11.54,9.847 21.38,9.847 19.85,0 34.8,-16.207 34.8,-37.75" style="fill:#f9fbfc;fill-opacity:1;fill-rule:nonzero;stroke:none" id="path216"/>
      <path d="m 3128.09,246.461 h -19.32 v 71.719 h 19.32 z m 2.59,95.187 c 0,-6.957 -5.41,-12.289 -12.36,-12.289 -6.96,0 -12.28,5.332 -12.28,12.289 0,6.954 5.32,12.434 12.28,12.434 6.95,0 12.36,-5.48 12.36,-12.434" style="fill:#f9fbfc;fill-opacity:1;fill-rule:nonzero;stroke:none" id="path218"/>
      <path d="m 3160.32,292.652 27.02,25.528 h 23.69 l -34.79,-33.75 35.01,-37.969 h -23.76 l -27.17,29.019 v -29.019 h -19.31 v 106.59 h 19.31 v -60.399" style="fill:#f9fbfc;fill-opacity:1;fill-rule:nonzero;stroke:none" id="path220"/>
      <path d="m 1844.13,266.301 v 32.078 c -3.95,6.152 -12.45,11.422 -21.24,11.422 -14.21,0 -22.7,-11.711 -22.7,-27.391 0,-15.668 8.49,-27.238 22.7,-27.238 8.79,0 17.29,4.98 21.24,11.129 z m 0,-19.192 v 10.551 c -5.27,-7.18 -13.92,-12.308 -23.88,-12.308 -18.45,0 -31.49,14.058 -31.49,37.058 0,22.559 12.89,37.211 31.49,37.211 9.53,0 18.17,-4.691 23.88,-12.449 v 37.637 h 10.99 v -97.7 h -10.99" style="fill:#f9fbfc;fill-opacity:1;fill-rule:nonzero;stroke:none" id="path222"/>
      <path d="m 1904.04,310.539 c -15.08,0 -22.56,-12.75 -23.14,-23.59 h 46.43 c -0.14,10.551 -7.17,23.59 -23.29,23.59 z m -34.71,-27.98 c 0,20.511 14.64,37.062 34.86,37.062 21.39,0 33.97,-16.699 33.97,-37.941 v -2.778 h -57.26 c 0.88,-13.332 10.25,-24.472 25.49,-24.472 8.05,0 16.26,3.23 21.81,8.941 l 5.28,-7.18 c -7.03,-7.031 -16.55,-10.839 -28.12,-10.839 -20.95,0 -36.03,15.089 -36.03,37.207" style="fill:#f9fbfc;fill-opacity:1;fill-rule:nonzero;stroke:none" id="path224"/>
      <path d="m 1946.07,256.48 5.72,7.911 c 4.68,-5.422 13.62,-10.102 23.29,-10.102 10.84,0 16.7,5.121 16.7,12.16 0,17.133 -43.8,6.59 -43.8,32.813 0,10.976 9.52,20.359 26.37,20.359 12.01,0 20.5,-4.539 26.22,-10.25 l -5.13,-7.621 c -4.25,5.121 -12.01,8.93 -21.09,8.93 -9.67,0 -15.68,-4.828 -15.68,-11.129 0,-15.531 43.8,-5.27 43.8,-32.809 0,-11.871 -9.52,-21.39 -27.83,-21.39 -11.57,0 -21.39,3.519 -28.57,11.128" style="fill:#f9fbfc;fill-opacity:1;fill-rule:nonzero;stroke:none" id="path226"/>
      <path d="m 2016.68,247.109 v 70.75 h 10.99 v -70.75 z m -1.9,88.18 c 0,4.102 3.36,7.473 7.32,7.473 4.1,0 7.47,-3.371 7.47,-7.473 0,-4.098 -3.37,-7.32 -7.47,-7.32 -3.96,0 -7.32,3.222 -7.32,7.32" style="fill:#f9fbfc;fill-opacity:1;fill-rule:nonzero;stroke:none" id="path228"/>
      <path d="m 2097.09,267.469 v 30.91 c -3.81,6.152 -12.3,11.422 -21.09,11.422 -14.21,0 -22.7,-11.27 -22.7,-26.949 0,-15.532 8.49,-26.954 22.7,-26.954 8.79,0 17.28,5.422 21.09,11.571 z m -51.26,-38.52 5.56,8.199 c 5.86,-7.027 12.89,-9.668 22.99,-9.668 11.72,0 22.71,5.711 22.71,21.239 v 10.113 c -5.13,-7.184 -13.77,-12.602 -23.73,-12.602 -18.46,0 -31.49,13.77 -31.49,36.622 0,22.707 12.89,36.769 31.49,36.769 9.52,0 18.02,-4.691 23.73,-12.449 v 10.687 h 10.99 V 249.16 c 0,-23.441 -16.41,-30.762 -33.7,-30.762 -12.01,0 -20.21,2.352 -28.55,10.551" style="fill:#f9fbfc;fill-opacity:1;fill-rule:nonzero;stroke:none" id="path230"/>
      <path d="m 2174.14,247.109 v 46.289 c 0,12.454 -6.3,16.403 -15.82,16.403 -8.64,0 -16.85,-5.27 -20.95,-10.981 v -51.711 h -10.98 v 70.75 h 10.98 v -10.25 c 4.98,5.86 14.65,12.012 25.2,12.012 14.79,0 22.56,-7.473 22.56,-22.851 v -49.661 h -10.99" style="fill:#f9fbfc;fill-opacity:1;fill-rule:nonzero;stroke:none" id="path232"/>
      <path d="m 2234.04,310.539 c -15.08,0 -22.56,-12.75 -23.13,-23.59 h 46.42 c -0.14,10.551 -7.17,23.59 -23.29,23.59 z m -34.71,-27.98 c 0,20.511 14.64,37.062 34.86,37.062 21.39,0 33.98,-16.699 33.98,-37.941 v -2.778 h -57.26 c 0.88,-13.332 10.24,-24.472 25.48,-24.472 8.05,0 16.26,3.23 21.82,8.941 l 5.28,-7.18 c -7.03,-7.031 -16.56,-10.839 -28.13,-10.839 -20.94,0 -36.03,15.089 -36.03,37.207" style="fill:#f9fbfc;fill-opacity:1;fill-rule:nonzero;stroke:none" id="path234"/>
      <path d="m 2333.51,266.301 v 32.078 c -3.96,6.152 -12.46,11.422 -21.24,11.422 -14.21,0 -22.71,-11.711 -22.71,-27.391 0,-15.668 8.5,-27.238 22.71,-27.238 8.78,0 17.28,4.98 21.24,11.129 z m 0,-19.192 v 10.551 c -5.28,-7.18 -13.92,-12.308 -23.88,-12.308 -18.46,0 -31.5,14.058 -31.5,37.058 0,22.559 12.9,37.211 31.5,37.211 9.52,0 18.16,-4.691 23.88,-12.449 v 37.637 h 10.98 v -97.7 h -10.98" style="fill:#f9fbfc;fill-opacity:1;fill-rule:nonzero;stroke:none" id="path236"/>
      <path d="m 2429,255.172 c 14.36,0 22.86,11.57 22.86,27.238 0,15.68 -8.5,27.391 -22.86,27.391 -8.64,0 -17.28,-5.27 -21.09,-11.422 v -32.078 c 3.81,-6.149 12.45,-11.129 21.09,-11.129 z m -32.08,-8.063 v 97.7 h 10.99 v -37.637 c 5.71,7.758 14.21,12.449 23.88,12.449 18.45,0 31.49,-14.652 31.49,-37.211 0,-23 -13.04,-37.058 -31.49,-37.058 -9.96,0 -18.61,5.128 -23.88,12.308 v -10.551 h -10.99" style="fill:#f9fbfc;fill-opacity:1;fill-rule:nonzero;stroke:none" id="path238"/>
      <path d="m 2475.29,229.379 c 1.61,-0.731 4.25,-1.168 6.01,-1.168 4.83,0 8.06,1.609 10.55,7.469 l 4.68,10.699 -29.59,71.48 h 11.87 l 23.58,-58.007 23.44,58.007 h 12 l -35.44,-85.109 c -4.25,-10.238 -11.42,-14.211 -20.8,-14.352 -2.34,0 -6,0.442 -8.05,1.032 l 1.75,9.949" style="fill:#f9fbfc;fill-opacity:1;fill-rule:nonzero;stroke:none" id="path240"/>
    </g>
  </g>
</svg>