<?xml version="1.0" encoding="utf-8"?>
<svg viewBox="0 0 500 500" xmlns="http://www.w3.org/2000/svg">
  <defs>
    <clipPath clipPathUnits="userSpaceOnUse" id="clipPath150">
      <path d="m 3084.4,2288.1 -125.37,33.73 c -12.83,47.36 -25.79,95.21 -38.82,143.31 24.51,-7.6 49.05,-15.1 73.64,-22.47 16.77,-5.09 33.57,-10.11 50.39,-15.07 l 40.16,-139.5 m -44.67,155.17 c -13.68,4.8 -27.37,9.55 -41.08,14.26 -28,9.73 -56.06,19.27 -84.15,28.7 -12,44.31 -24.09,88.92 -36.17,133.5 40.84,-14.38 81.74,-28.56 122.79,-42.37 l 38.61,-134.09 m -44.28,153.77 c -41,15.55 -82.15,30.71 -123.35,45.71 -11.9,43.93 -23.81,87.89 -35.7,131.76 3.38,-1.26 6.75,-2.52 10.12,-3.78 36.81,-13.54 73.64,-27.02 110.53,-40.32 l 38.4,-133.37 m -44.9,155.94 c -32.32,12.27 -64.69,24.4 -97.07,36.49 -7.82,2.88 -15.64,5.75 -23.46,8.61 -9.57,35.31 -19.12,70.56 -28.62,105.62 25.99,-8.6 52,-17.12 78.02,-25.61 12.89,-4.13 25.78,-8.26 38.67,-12.37 l 32.46,-112.74 m -39.06,135.67 c -8.64,2.82 -17.27,5.64 -25.91,8.46 -30.03,9.62 -60.08,19.2 -90.16,28.67 -12.99,47.95 -25.92,95.68 -38.68,142.8 38.31,-14.45 76.73,-28.59 115.21,-42.59 l 39.54,-137.34 m -46.22,160.53 c -37.91,13.35 -75.88,26.55 -113.96,39.44 -12.73,46.97 -25.36,93.59 -37.74,139.3 5.4,-2.13 10.81,-4.25 16.23,-6.36 32.13,-12.68 64.35,-25.14 96.62,-37.45 l 38.85,-134.93 m -45.21,157.01 c -28.23,10.12 -56.51,20.12 -84.85,29.95 -8.78,3.08 -17.57,6.14 -26.36,9.18 -5.14,18.98 -10.2,37.65 -15.26,56.35 2.51,11.85 3.91,18.43 3.91,18.43 l -9.1,0.72 c -1.54,5.68 -3.07,11.31 -4.6,16.96 19.16,-6.79 38.34,-13.48 57.56,-20.08 17.22,-5.98 34.45,-11.9 51.71,-17.76 l 26.99,-93.75 m -32.78,113.86 c -13.7,4.18 -27.41,8.34 -41.14,12.45 -22.04,6.69 -44.13,13.26 -66.25,19.71 -14.95,55.21 -29.55,109.07 -43.65,161.12 35.81,-14.74 71.74,-29.12 107.81,-43.13 l 43.23,-150.15 m -47.75,165.85 c -34.84,11.39 -69.79,22.46 -104.85,33.21 -14.8,54.6 -29.1,107.39 -42.72,157.65 35,-15.04 70.12,-29.77 105.34,-44.19 l 42.23,-146.67 m -45.54,158.17 c -33.94,11.25 -67.96,22.22 -102.1,32.94 -12.84,47.4 -25.09,92.6 -36.68,135.4 l 99.98,-33.61 38.8,-134.73" id="path148"/>
    </clipPath>
    <clipPath clipPathUnits="userSpaceOnUse" id="clipPath320">
      <path d="m 2693.59,3301.67 c -1.72,6.32 -3.49,12.86 -5.19,19.15 l 9.1,-0.72 c 0,0 -1.4,-6.58 -3.91,-18.43" id="path318"/>
    </clipPath>
  </defs>
  <g id="g10" transform="matrix(0.989366, 0, 0, -1.030355, 53.537495, 472.273621)" style="">
    <g id="g12" transform="scale(0.1)">
      <path d="m 2096.4,419.27 c -51.83,0 -103.25,1.859 -154.1,5.511 l 395.98,212.328 67.72,-36.308 216.04,-115.86 C 2454.38,442.09 2278.21,419.27 2096.4,419.27 M 826.941,845.371 C 364.176,1200.37 67.9297,1745.27 67.9297,2356.21 c 0,126.53 12.7187,250.29 36.9803,370.06 L 805,1282.6 991.203,1358 1058.47,1385.23 1166.82,981.309 1093.3,951.898 826.941,845.371 m 2712.399,149.481 -184.64,73.848 -97.02,38.81 c 18.1,5.23 27.67,8.7 27.32,10.09 -2.11,8.43 -152.59,564.17 -325.97,1204.23 l 125.37,-33.73 280.6,-75.5 245,1245 -954.81,321.2 -99.98,33.61 C 2485.42,4069.97 2440,4237.6 2440,4237.6 l -532.47,-114.1 -42.93,92.9 -28.19,60.99 c 85.11,10.4 171.92,15.76 259.99,15.76 1120.29,0 2028.46,-867.2 2028.46,-1936.94 0,-530.69 -223.48,-1011.51 -585.52,-1361.358 M 215.258,3082.27 c 68.344,161.32 158.805,311.83 267.758,448.14 l 62.699,-233.72 -36.211,-23.49 -294.246,-190.93 m 658.644,819.74 c 18.481,13.35 37.133,26.35 56.102,39.1 l 11.461,-24.63 -67.563,-14.47" style="fill:#f3d5d7;fill-opacity:1;fill-rule:nonzero;stroke:none" id="path14"/>
      <path d="M 1645,1622.6 991.203,1358 805,1282.6 0,2942.6 509.504,3273.2 840,3487.6 l 805,-1865" style="fill:#f5f5f5;fill-opacity:1;fill-rule:nonzero;stroke:none" id="path16"/>
      <path d="m 190,2857.6 585,390 -585,-390" style="fill:#f5f5f5;fill-opacity:1;fill-rule:nonzero;stroke:none" id="path18"/>
      <path d="m 190,2857.6 c 46.605,35.71 93.914,70.37 141.938,103.97 47.867,33.82 96.378,66.68 145.019,99.35 48.844,32.35 97.832,64.5 147.469,95.67 49.469,31.41 99.668,61.74 150.574,91.01 -46.594,-35.73 -93.898,-70.41 -141.926,-103.99 -47.863,-33.83 -96.375,-66.68 -145.031,-99.33 -48.859,-32.33 -97.848,-64.47 -147.48,-95.65 -49.477,-31.4 -99.668,-61.74 -150.563,-91.03" style="fill:#3f2d1f;fill-opacity:1;fill-rule:nonzero;stroke:none" id="path20"/>
      <path d="m 230,2777.6 585,390 -585,-390" style="fill:#f5f5f5;fill-opacity:1;fill-rule:nonzero;stroke:none" id="path22"/>
      <path d="m 230,2777.6 c 46.605,35.71 93.918,70.37 141.938,103.97 47.867,33.82 96.378,66.68 145.019,99.35 48.844,32.35 97.832,64.5 147.469,95.67 49.472,31.41 99.668,61.74 150.574,91.01 -46.594,-35.73 -93.898,-70.41 -141.926,-103.99 -47.863,-33.83 -96.375,-66.68 -145.031,-99.33 -48.859,-32.33 -97.848,-64.47 -147.48,-95.65 -49.477,-31.4 -99.668,-61.74 -150.563,-91.03" style="fill:#3f2d1f;fill-opacity:1;fill-rule:nonzero;stroke:none" id="path24"/>
      <path d="m 300,2612.6 585,390 -585,-390" style="fill:#f5f5f5;fill-opacity:1;fill-rule:nonzero;stroke:none" id="path26"/>
      <path d="m 300,2612.6 c 46.605,35.71 93.918,70.37 141.938,103.97 47.867,33.82 96.378,66.68 145.023,99.35 48.84,32.35 97.828,64.5 147.465,95.67 49.472,31.42 99.664,61.74 150.574,91.01 -46.594,-35.73 -93.895,-70.41 -141.926,-103.99 -47.863,-33.83 -96.375,-66.68 -145.031,-99.33 -48.859,-32.33 -97.848,-64.47 -147.48,-95.65 -49.477,-31.4 -99.668,-61.74 -150.563,-91.03" style="fill:#3f2d1f;fill-opacity:1;fill-rule:nonzero;stroke:none" id="path28"/>
      <path d="m 355,2522.6 585,390 -585,-390" style="fill:#f5f5f5;fill-opacity:1;fill-rule:nonzero;stroke:none" id="path30"/>
      <path d="m 355,2522.6 c 46.605,35.71 93.914,70.37 141.938,103.97 47.867,33.82 96.378,66.68 145.019,99.34 48.844,32.36 97.832,64.51 147.469,95.68 49.469,31.42 99.668,61.74 150.574,91.01 -46.59,-35.73 -93.895,-70.4 -141.922,-103.99 -47.867,-33.83 -96.379,-66.68 -145.035,-99.33 -48.859,-32.33 -97.848,-64.47 -147.48,-95.65 -49.477,-31.4 -99.668,-61.74 -150.563,-91.03" style="fill:#3f2d1f;fill-opacity:1;fill-rule:nonzero;stroke:none" id="path32"/>
      <path d="m 430,2342.6 585,390 -585,-390" style="fill:#f5f5f5;fill-opacity:1;fill-rule:nonzero;stroke:none" id="path34"/>
      <path d="m 430,2342.6 c 46.605,35.71 93.918,70.37 141.938,103.97 47.867,33.82 96.378,66.68 145.019,99.35 48.844,32.35 97.832,64.5 147.469,95.67 49.469,31.42 99.668,61.74 150.574,91.01 -46.59,-35.73 -93.895,-70.41 -141.926,-103.99 -47.863,-33.83 -96.375,-66.68 -145.031,-99.33 -48.859,-32.33 -97.848,-64.47 -147.48,-95.65 -49.477,-31.4 -99.668,-61.74 -150.563,-91.03" style="fill:#3f2d1f;fill-opacity:1;fill-rule:nonzero;stroke:none" id="path36"/>
      <path d="m 480,2252.6 585,390 -585,-390" style="fill:#f5f5f5;fill-opacity:1;fill-rule:nonzero;stroke:none" id="path38"/>
      <path d="m 480,2252.6 c 46.605,35.71 93.918,70.37 141.938,103.97 47.867,33.82 96.378,66.68 145.019,99.35 48.844,32.35 97.832,64.5 147.465,95.67 49.473,31.41 99.668,61.74 150.578,91.01 -46.59,-35.73 -93.898,-70.41 -141.926,-103.99 -47.863,-33.83 -96.375,-66.68 -145.031,-99.33 -48.859,-32.33 -97.848,-64.47 -147.48,-95.65 -49.477,-31.4 -99.668,-61.74 -150.563,-91.03" style="fill:#3f2d1f;fill-opacity:1;fill-rule:nonzero;stroke:none" id="path40"/>
      <path d="m 570,2117.6 585,390 -585,-390" style="fill:#f5f5f5;fill-opacity:1;fill-rule:nonzero;stroke:none" id="path42"/>
      <path d="m 570,2117.6 c 46.605,35.71 93.918,70.37 141.938,103.97 47.867,33.82 96.378,66.68 145.019,99.35 48.844,32.35 97.832,64.5 147.463,95.67 49.48,31.42 99.67,61.74 150.58,91.01 -46.59,-35.73 -93.9,-70.41 -141.92,-103.99 -47.869,-33.83 -96.381,-66.68 -145.037,-99.32 -48.859,-32.34 -97.848,-64.48 -147.48,-95.66 -49.477,-31.4 -99.668,-61.74 -150.563,-91.03" style="fill:#3f2d1f;fill-opacity:1;fill-rule:nonzero;stroke:none" id="path44"/>
      <path d="m 680,1872.6 585,390 -585,-390" style="fill:#f5f5f5;fill-opacity:1;fill-rule:nonzero;stroke:none" id="path46"/>
      <path d="m 680,1872.6 c 46.605,35.71 93.918,70.37 141.938,103.97 47.867,33.82 96.378,66.68 145.019,99.35 48.843,32.35 97.833,64.49 147.463,95.67 49.48,31.42 99.67,61.74 150.58,91.01 -46.59,-35.73 -93.9,-70.41 -141.92,-103.99 -47.87,-33.82 -96.38,-66.68 -145.037,-99.33 -48.859,-32.33 -97.848,-64.47 -147.48,-95.64 C 781.082,1932.23 730.895,1901.89 680,1872.6" style="fill:#3f2d1f;fill-opacity:1;fill-rule:nonzero;stroke:none" id="path48"/>
      <path d="m 735,1782.6 585,390 -585,-390" style="fill:#f5f5f5;fill-opacity:1;fill-rule:nonzero;stroke:none" id="path50"/>
      <path d="m 735,1782.6 c 46.605,35.71 93.918,70.37 141.938,103.97 47.867,33.82 96.378,66.68 145.022,99.35 48.84,32.35 97.83,64.49 147.46,95.67 49.48,31.42 99.67,61.74 150.58,91.01 -46.59,-35.73 -93.9,-70.41 -141.92,-103.99 -47.87,-33.82 -96.38,-66.68 -145.04,-99.33 -48.856,-32.33 -97.845,-64.47 -147.477,-95.64 C 836.086,1842.23 785.895,1811.89 735,1782.6" style="fill:#3f2d1f;fill-opacity:1;fill-rule:nonzero;stroke:none" id="path52"/>
      <path d="m 810,1602.6 585,390 -585,-390" style="fill:#f5f5f5;fill-opacity:1;fill-rule:nonzero;stroke:none" id="path54"/>
      <path d="m 810,1602.6 c 46.605,35.71 93.918,70.37 141.938,103.96 47.867,33.83 96.372,66.69 145.022,99.36 48.84,32.35 97.83,64.49 147.46,95.67 49.48,31.42 99.67,61.74 150.58,91.01 -46.59,-35.73 -93.9,-70.41 -141.92,-103.99 -47.87,-33.82 -96.38,-66.68 -145.04,-99.33 -48.85,-32.33 -97.84,-64.47 -147.477,-95.64 C 911.086,1662.23 860.895,1631.89 810,1602.6" style="fill:#3f2d1f;fill-opacity:1;fill-rule:nonzero;stroke:none" id="path56"/>
      <path d="m 860,1512.6 585,390 -585,-390" style="fill:#f5f5f5;fill-opacity:1;fill-rule:nonzero;stroke:none" id="path58"/>
      <path d="m 860,1512.6 c 46.605,35.71 93.918,70.37 141.94,103.96 47.86,33.83 96.38,66.69 145.02,99.36 48.84,32.35 97.83,64.49 147.46,95.67 49.48,31.42 99.67,61.74 150.58,91.01 -46.59,-35.73 -93.9,-70.41 -141.92,-103.99 -47.87,-33.82 -96.38,-66.68 -145.04,-99.33 -48.86,-32.33 -97.84,-64.47 -147.48,-95.65 -49.474,-31.4 -99.665,-61.74 -150.56,-91.03" style="fill:#3f2d1f;fill-opacity:1;fill-rule:nonzero;stroke:none" id="path60"/>
      <path d="m 610,2037.6 585,390 -585,-390" style="fill:#f5f5f5;fill-opacity:1;fill-rule:nonzero;stroke:none" id="path62"/>
      <path d="m 610,2037.6 c 46.605,35.71 93.918,70.37 141.938,103.97 47.867,33.82 96.378,66.68 145.019,99.35 48.844,32.35 97.832,64.5 147.463,95.67 49.48,31.42 99.67,61.74 150.58,91.01 -46.59,-35.73 -93.9,-70.41 -141.92,-103.99 -47.87,-33.83 -96.381,-66.68 -145.037,-99.33 -48.859,-32.33 -97.848,-64.47 -147.48,-95.65 -49.477,-31.4 -99.668,-61.74 -150.563,-91.03" style="fill:#3f2d1f;fill-opacity:1;fill-rule:nonzero;stroke:none" id="path64"/>
      <path d="m 991.203,1358 -50.828,202.09 c 20.469,12.41 40.824,25 61.055,37.77 l 57.04,-212.63 -67.267,-27.23 m -53.496,212.69 -23.613,93.89 c 15.554,9.58 31.047,19.27 46.469,29.06 4.332,2.72 8.66,5.44 12.98,8.18 l 23.742,-88.51 c -19.984,-14.03 -39.84,-28.23 -59.578,-42.62 m -26.852,106.75 -46.05,183.11 c 6.933,4.34 13.851,8.7 20.758,13.09 11.968,7.51 23.898,15.08 35.796,22.7 l 47.684,-177.75 c -5.711,-3.99 -11.41,-8 -17.105,-12.03 -13.75,-9.62 -27.446,-19.32 -41.083,-29.12 m -49.789,197.97 -23.328,92.74 c 18.391,11.6 36.692,23.32 54.934,35.14 l 23.883,-89.03 c -13.25,-9.17 -26.453,-18.39 -39.617,-27.69 -5.297,-3.71 -10.59,-7.43 -15.872,-11.16 m -27.503,109.34 -41.247,164.01 c 17.485,11.17 34.899,22.44 52.274,33.77 l 43.012,-160.34 c -18.082,-12.38 -36.098,-24.84 -54.039,-37.44 m -45.754,181.92 -18.375,73.07 c 17.023,10.96 33.996,22.01 50.925,33.11 l 19,-70.81 c -17.234,-11.72 -34.425,-23.5 -51.55,-35.37 m -23.063,91.7 -37.144,147.68 c 16.183,10.6 32.332,21.25 48.464,31.93 l 38.977,-145.31 c -16.805,-11.37 -33.578,-22.79 -50.297,-34.3 m -42.164,167.64 -21.496,85.47 c 8.988,5.92 17.977,11.86 26.957,17.8 6.648,4.47 13.293,8.93 19.937,13.4 l 22.625,-84.35 c -1.214,-0.8 -2.429,-1.61 -3.648,-2.41 -14.809,-9.95 -29.605,-19.91 -44.375,-29.91 m -26.609,105.79 -44.395,176.52 c 0.488,0.32 0.977,0.64 1.465,0.96 14.199,9.53 28.391,19.08 42.555,28.66 l 46.972,-175.09 c -8.547,-5.64 -17.082,-11.28 -25.613,-16.93 -6.996,-4.7 -13.992,-9.41 -20.984,-14.12 m -49.563,197.06 -22.144,88.05 c 14.168,9.55 28.32,19.13 42.433,28.76 l 23.578,-87.89 c -14.644,-9.6 -29.265,-19.25 -43.867,-28.92 m -27.246,108.33 -40.539,161.19 c 13.297,9.02 26.578,18.07 39.82,27.18 l 43.086,-160.62 c -14.152,-9.21 -28.269,-18.46 -42.367,-27.75 m -45.539,181.06 -18.023,71.67 c 12.859,8.76 25.691,17.57 38.488,26.43 l 19.371,-72.21 c -13.309,-8.58 -26.586,-17.22 -39.836,-25.89 m -22.926,91.15 -41.195,163.8 36.211,23.49 43.558,-162.39 c -12.89,-8.25 -25.746,-16.56 -38.574,-24.9" style="fill:#dadada;fill-opacity:1;fill-rule:nonzero;stroke:none" id="path66"/>
      <path d="m 555.602,3089.92 -4.903,19.48 c 12.828,8.34 25.684,16.65 38.574,24.9 l 4.817,-17.95 c -12.797,-8.86 -25.629,-17.67 -38.488,-26.43" style="fill:#38281c;fill-opacity:1;fill-rule:nonzero;stroke:none" id="path68"/>
      <path d="m 578.625,2998.38 -5,19.87 c 13.25,8.67 26.527,17.31 39.836,25.89 l 4.984,-18.58 c -13.242,-9.11 -26.523,-18.16 -39.82,-27.18" style="fill:#38281c;fill-opacity:1;fill-rule:nonzero;stroke:none" id="path70"/>
      <path d="m 624.266,2816.91 -5.102,20.28 c 14.098,9.29 28.215,18.54 42.367,27.75 l 5.168,-19.27 c -14.113,-9.63 -28.265,-19.21 -42.433,-28.76" style="fill:#38281c;fill-opacity:1;fill-rule:nonzero;stroke:none" id="path72"/>
      <path d="m 651.578,2708.32 -5.168,20.54 c 14.602,9.67 29.223,19.32 43.867,28.92 l 5.321,-19.84 c -14.164,-9.58 -28.356,-19.13 -42.555,-28.66 -0.488,-0.32 -0.977,-0.64 -1.465,-0.96" style="fill:#38281c;fill-opacity:1;fill-rule:nonzero;stroke:none" id="path74"/>
      <path d="m 701.086,2511.48 -5.113,20.32 c 6.992,4.71 13.988,9.42 20.984,14.12 8.531,5.65 17.066,11.29 25.613,16.93 l 5.41,-20.17 c -6.644,-4.47 -13.289,-8.93 -19.937,-13.4 -8.98,-5.94 -17.969,-11.88 -26.957,-17.8" style="fill:#38281c;fill-opacity:1;fill-rule:nonzero;stroke:none" id="path76"/>
      <path d="m 727.602,2406.05 -5.02,19.96 c 14.77,10 29.566,19.96 44.375,29.91 1.219,0.8 2.434,1.61 3.648,2.41 l 5.461,-20.35 c -16.132,-10.68 -32.281,-21.33 -48.464,-31.93" style="fill:#38281c;fill-opacity:1;fill-rule:nonzero;stroke:none" id="path78"/>
      <path d="m 769.434,2239.74 -4.688,18.63 c 16.719,11.51 33.492,22.93 50.297,34.3 l 5.316,-19.82 c -16.929,-11.1 -33.902,-22.15 -50.925,-33.11" style="fill:#38281c;fill-opacity:1;fill-rule:nonzero;stroke:none" id="path80"/>
      <path d="m 837.738,1968.15 -4.175,16.6 c 17.941,12.6 35.957,25.06 54.039,37.44 l 5.07,-18.9 c -18.242,-11.82 -36.543,-23.54 -54.934,-35.14" style="fill:#38281c;fill-opacity:1;fill-rule:nonzero;stroke:none" id="path82"/>
      <path d="m 864.805,1860.55 -3.739,14.86 c 5.282,3.73 10.575,7.45 15.872,11.16 13.164,9.3 26.367,18.52 39.617,27.69 l 4.804,-17.92 c -11.898,-7.62 -23.828,-15.19 -35.796,-22.7 -6.907,-4.39 -13.825,-8.75 -20.758,-13.09" style="fill:#38281c;fill-opacity:1;fill-rule:nonzero;stroke:none" id="path84"/>
      <path d="m 914.094,1664.58 -3.239,12.86 c 13.637,9.8 27.333,19.5 41.083,29.12 5.695,4.03 11.394,8.04 17.105,12.03 l 4.5,-16.77 c -4.32,-2.74 -8.648,-5.46 -12.98,-8.18 -15.422,-9.79 -30.915,-19.48 -46.469,-29.06" style="fill:#38281c;fill-opacity:1;fill-rule:nonzero;stroke:none" id="path86"/>
      <path d="m 940.375,1560.09 -2.668,10.6 c 19.738,14.39 39.594,28.59 59.578,42.62 l 4.145,-15.45 c -20.231,-12.77 -40.586,-25.36 -61.055,-37.77" style="fill:#38281c;fill-opacity:1;fill-rule:nonzero;stroke:none" id="path88"/>
      <path d="m 792.316,2148.76 -4.507,17.91 c 17.125,11.87 34.316,23.65 51.55,35.37 l 5.231,-19.51 c -17.375,-11.33 -34.789,-22.6 -52.274,-33.77" style="fill:#38281c;fill-opacity:1;fill-rule:nonzero;stroke:none" id="path90"/>
      <path d="m 2005,3912.6 -950,-240 -155.297,333.6 -114.703,246.4 945,255 134.6,-291.2 140.4,-303.8" style="fill:#f5f5f5;fill-opacity:1;fill-rule:nonzero;stroke:none" id="path92"/>
      <path d="m 985,4212.6 c 54.01,18.32 108.34,35.41 163.01,51.27 54.59,16.12 109.48,31.11 164.43,45.89 55.05,14.41 110.15,28.59 165.56,41.63 55.33,13.32 111,25.38 167,36.21 -54,-18.34 -108.33,-35.44 -163,-51.3 -54.59,-16.11 -109.49,-31.11 -164.44,-45.86 -55.05,-14.39 -110.16,-28.56 -165.57,-41.6 -55.33,-13.32 -111,-25.39 -166.99,-36.24" style="fill:#3f2d1f;fill-opacity:1;fill-rule:nonzero;stroke:none" id="path94"/>
      <path d="m 1040,4112.6 c 52.82,17.08 105.95,32.94 159.38,47.54 53.36,14.89 107.01,28.63 160.71,42.16 53.8,13.16 107.65,26.09 161.78,37.87 54.07,12.07 108.44,22.87 163.13,32.43 -52.81,-17.1 -105.94,-32.97 -159.37,-47.57 -53.37,-14.88 -107.02,-28.62 -160.72,-42.13 -53.8,-13.14 -107.65,-26.06 -161.79,-37.85 C 1149.05,4133 1094.68,4122.18 1040,4112.6" style="fill:#3f2d1f;fill-opacity:1;fill-rule:nonzero;stroke:none" id="path96"/>
      <path d="m 1090,4012.6 c 54.01,18.32 108.34,35.41 163.01,51.26 54.59,16.13 109.48,31.12 164.43,45.9 55.05,14.41 110.15,28.59 165.56,41.63 55.33,13.32 111,25.38 167,36.21 -54,-18.34 -108.34,-35.44 -163,-51.3 -54.59,-16.11 -109.49,-31.1 -164.44,-45.86 -55.05,-14.39 -110.16,-28.56 -165.57,-41.6 -55.33,-13.32 -111,-25.39 -166.99,-36.24" style="fill:#3f2d1f;fill-opacity:1;fill-rule:nonzero;stroke:none" id="path98"/>
      <path d="m 1145,3912.6 c 52.82,17.08 105.95,32.94 159.38,47.54 53.36,14.89 107.01,28.63 160.71,42.16 53.8,13.16 107.65,26.09 161.78,37.88 54.07,12.06 108.44,22.86 163.13,32.42 -52.81,-17.1 -105.94,-32.97 -159.37,-47.57 -53.37,-14.88 -107.02,-28.63 -160.72,-42.13 -53.8,-13.14 -107.65,-26.06 -161.79,-37.85 C 1254.05,3933 1199.68,3922.18 1145,3912.6" style="fill:#3f2d1f;fill-opacity:1;fill-rule:nonzero;stroke:none" id="path100"/>
      <path d="m 941.465,3916.48 -41.762,89.72 964.897,210.2 42.93,-92.9 -966.065,-207.02 M 1750,4187.6 c -56,-10.83 -111.67,-22.89 -167,-36.21 -55.41,-13.04 -110.51,-27.22 -165.56,-41.63 -54.95,-14.78 -109.84,-29.77 -164.43,-45.9 -54.67,-15.85 -109,-32.94 -163.01,-51.26 55.99,10.85 111.66,22.92 166.99,36.24 55.41,13.04 110.52,27.21 165.57,41.6 54.95,14.76 109.85,29.75 164.44,45.86 54.66,15.86 109,32.96 163,51.3" style="fill:#dadada;fill-opacity:1;fill-rule:nonzero;stroke:none" id="path102"/>
      <path d="m 1090,4012.6 c 54.01,18.32 108.34,35.41 163.01,51.26 54.59,16.13 109.48,31.12 164.43,45.9 55.05,14.41 110.15,28.59 165.56,41.63 55.33,13.32 111,25.38 167,36.21 -54,-18.34 -108.34,-35.44 -163,-51.3 -54.59,-16.11 -109.49,-31.1 -164.44,-45.86 -55.05,-14.39 -110.16,-28.56 -165.57,-41.6 -55.33,-13.32 -111,-25.39 -166.99,-36.24" style="fill:#38281c;fill-opacity:1;fill-rule:nonzero;stroke:none" id="path104"/>
      <path d="m 3610,3457.6 -245,-1245 -280.6,75.5 -834.4,224.5 260,1315 145.19,-48.8 954.81,-321.2" style="fill:#f5f5f5;fill-opacity:1;fill-rule:nonzero;stroke:none" id="path106"/>
      <path d="m 2590,3677.6 850,-315 -850,315" style="fill:#f5f5f5;fill-opacity:1;fill-rule:nonzero;stroke:none" id="path108"/>
      <path d="m 2590,3677.6 c 72.18,-22.63 143.91,-46.44 215.2,-71.46 71.39,-24.75 142.37,-50.6 213.28,-76.67 70.77,-26.41 141.45,-53.06 211.73,-80.8 70.38,-27.48 140.31,-56.18 209.79,-86.07 -72.19,22.61 -143.93,46.41 -215.22,71.43 -71.38,24.76 -142.36,50.61 -213.26,76.7 -70.76,26.44 -141.44,53.09 -211.72,80.83 -70.38,27.49 -140.31,56.17 -209.8,86.04" style="fill:#3f2d1f;fill-opacity:1;fill-rule:nonzero;stroke:none" id="path110"/>
      <path d="m 2590,3532.6 795,-285 -795,285" style="fill:#f5f5f5;fill-opacity:1;fill-rule:nonzero;stroke:none" id="path112"/>
      <path d="m 2590,3532.6 c 67.56,-20.11 134.68,-41.42 201.38,-63.93 66.78,-22.25 133.17,-45.6 199.49,-69.16 66.19,-23.92 132.3,-48.07 198.02,-73.32 65.8,-24.98 131.17,-51.18 196.11,-78.59 -67.56,20.09 -134.69,41.39 -201.39,63.91 -66.78,22.25 -133.17,45.6 -199.48,69.18 -66.18,23.94 -132.29,48.09 -198.01,73.34 -65.8,24.99 -131.18,51.18 -196.12,78.57" style="fill:#3f2d1f;fill-opacity:1;fill-rule:nonzero;stroke:none" id="path114"/>
      <path d="m 2535,3392.6 835,-270 -835,270" style="fill:#f5f5f5;fill-opacity:1;fill-rule:nonzero;stroke:none" id="path116"/>
      <path d="m 2535,3392.6 c 70.77,-18.82 141.15,-38.86 211.14,-60.1 70.07,-20.98 139.79,-43.08 209.44,-65.39 69.53,-22.67 138.98,-45.57 208.07,-69.58 69.18,-23.75 137.96,-48.73 206.35,-74.93 -70.78,18.8 -141.16,38.82 -211.15,60.07 -70.07,20.99 -139.79,43.09 -209.43,65.42 -69.52,22.69 -138.97,45.59 -208.06,69.61 -69.18,23.76 -137.96,48.72 -206.36,74.9" style="fill:#3f2d1f;fill-opacity:1;fill-rule:nonzero;stroke:none" id="path118"/>
      <path d="m 2520,3307.6 850,-315 -850,315" style="fill:#f5f5f5;fill-opacity:1;fill-rule:nonzero;stroke:none" id="path120"/>
      <path d="m 2520,3307.6 c 72.18,-22.63 143.91,-46.45 215.21,-71.46 71.38,-24.76 142.36,-50.61 213.27,-76.67 70.77,-26.41 141.45,-53.06 211.73,-80.8 70.38,-27.48 140.31,-56.18 209.79,-86.07 -72.19,22.61 -143.93,46.41 -215.22,71.43 -71.38,24.76 -142.36,50.61 -213.26,76.7 -70.76,26.43 -141.44,53.09 -211.72,80.83 -70.38,27.49 -140.31,56.17 -209.8,86.04" style="fill:#3f2d1f;fill-opacity:1;fill-rule:nonzero;stroke:none" id="path122"/>
      <path d="m 2520,3162.6 795,-285 -795,285" style="fill:#f5f5f5;fill-opacity:1;fill-rule:nonzero;stroke:none" id="path124"/>
      <path d="m 2520,3162.6 c 67.56,-20.11 134.68,-41.42 201.38,-63.93 66.78,-22.25 133.17,-45.6 199.49,-69.16 66.19,-23.92 132.3,-48.07 198.02,-73.32 65.8,-24.98 131.17,-51.18 196.11,-78.59 -67.56,20.09 -134.69,41.39 -201.39,63.91 -66.78,22.25 -133.17,45.6 -199.48,69.18 -66.18,23.94 -132.29,48.09 -198.01,73.34 -65.8,24.99 -131.18,51.18 -196.12,78.57" style="fill:#3f2d1f;fill-opacity:1;fill-rule:nonzero;stroke:none" id="path126"/>
      <path d="m 2465,3022.6 835,-270 -835,270" style="fill:#f5f5f5;fill-opacity:1;fill-rule:nonzero;stroke:none" id="path128"/>
      <path d="m 2465,3022.6 c 70.77,-18.82 141.15,-38.86 211.14,-60.1 70.07,-20.98 139.79,-43.08 209.44,-65.39 69.53,-22.67 138.98,-45.57 208.07,-69.58 69.18,-23.75 137.96,-48.73 206.35,-74.93 -70.78,18.8 -141.16,38.82 -211.15,60.07 -70.07,20.99 -139.79,43.09 -209.43,65.42 -69.52,22.69 -138.97,45.59 -208.06,69.61 -69.18,23.76 -137.96,48.72 -206.36,74.9" style="fill:#3f2d1f;fill-opacity:1;fill-rule:nonzero;stroke:none" id="path130"/>
      <path d="m 2425,2937.6 850,-315 -850,315" style="fill:#f5f5f5;fill-opacity:1;fill-rule:nonzero;stroke:none" id="path132"/>
      <path d="m 2425,2937.6 c 72.18,-22.63 143.91,-46.45 215.2,-71.46 71.39,-24.76 142.37,-50.61 213.28,-76.67 70.77,-26.41 141.45,-53.06 211.73,-80.8 70.38,-27.48 140.31,-56.18 209.79,-86.07 -72.19,22.61 -143.93,46.41 -215.21,71.43 -71.39,24.76 -142.37,50.61 -213.27,76.7 -70.76,26.44 -141.44,53.09 -211.73,80.83 -70.37,27.49 -140.3,56.17 -209.79,86.04" style="fill:#3f2d1f;fill-opacity:1;fill-rule:nonzero;stroke:none" id="path134"/>
      <path d="m 2425,2792.6 795,-285 -795,285" style="fill:#f5f5f5;fill-opacity:1;fill-rule:nonzero;stroke:none" id="path136"/>
      <path d="m 2425,2792.6 c 67.56,-20.11 134.68,-41.42 201.38,-63.93 66.78,-22.25 133.17,-45.6 199.49,-69.16 66.19,-23.92 132.3,-48.07 198.02,-73.32 65.8,-24.98 131.17,-51.18 196.11,-78.59 -67.56,20.09 -134.69,41.39 -201.39,63.91 -66.78,22.25 -133.17,45.6 -199.48,69.18 -66.18,23.94 -132.29,48.09 -198.01,73.34 -65.8,24.99 -131.18,51.18 -196.12,78.57" style="fill:#3f2d1f;fill-opacity:1;fill-rule:nonzero;stroke:none" id="path138"/>
      <path d="m 2370,2652.6 835,-270 -835,270" style="fill:#f5f5f5;fill-opacity:1;fill-rule:nonzero;stroke:none" id="path140"/>
      <path d="m 2370,2652.6 c 70.77,-18.82 141.15,-38.86 211.14,-60.1 70.07,-20.98 139.79,-43.08 209.44,-65.39 69.53,-22.67 138.98,-45.57 208.07,-69.58 69.18,-23.75 137.96,-48.73 206.35,-74.93 -70.78,18.8 -141.16,38.82 -211.15,60.07 -70.07,20.99 -139.79,43.09 -209.43,65.42 -69.52,22.69 -138.97,45.59 -208.06,69.61 -69.18,23.76 -137.96,48.72 -206.36,74.9" style="fill:#3f2d1f;fill-opacity:1;fill-rule:nonzero;stroke:none" id="path142"/>
      <g id="g144">
        <g id="g146" clip-path="url(#clipPath150)">
          <path d="m 2555.21,2288.1 h 529.188 V 3812.4 H 2555.21 Z" style="fill:#dadada;fill-opacity:1;fill-rule:nonzero;stroke:none" id="path152"/>
        </g>
      </g>
      <path d="m 2697.3,3632.57 c -35.22,14.42 -70.34,29.15 -105.34,44.19 -0.02,0.07 -0.05,0.17 -0.07,0.25 34.14,-10.72 68.16,-21.69 102.1,-32.94 l 3.31,-11.5" style="fill:#38281c;fill-opacity:1;fill-rule:nonzero;stroke:none" id="path154"/>
      <path d="m 2744.05,3470.2 c -36.07,14.01 -72,28.39 -107.81,43.13 -0.53,1.96 -1.03,3.82 -1.56,5.78 35.06,-10.75 70.01,-21.82 104.85,-33.21 l 4.52,-15.7" style="fill:#38281c;fill-opacity:1;fill-rule:nonzero;stroke:none" id="path156"/>
      <path d="m 2793.07,3299.94 c -17.26,5.86 -34.49,11.78 -51.71,17.76 -19.22,6.6 -38.4,13.29 -57.56,20.08 -1.31,4.86 -2.59,9.59 -3.91,14.43 22.12,-6.45 44.21,-13.02 66.25,-19.71 13.73,-4.11 27.44,-8.27 41.14,-12.45 l 5.79,-20.11" style="fill:#38281c;fill-opacity:1;fill-rule:nonzero;stroke:none" id="path158"/>
      <path d="m 2826.42,3184.11 c -32.27,12.31 -64.49,24.77 -96.62,37.45 -5.42,2.11 -10.83,4.23 -16.23,6.36 -1.58,5.82 -3.15,11.61 -4.72,17.4 8.79,-3.04 17.58,-6.1 26.36,-9.18 28.34,-9.83 56.62,-19.83 84.85,-29.95 l 6.36,-22.08" style="fill:#38281c;fill-opacity:1;fill-rule:nonzero;stroke:none" id="path160"/>
      <path d="m 2871.95,3025.99 c -38.48,14 -76.9,28.14 -115.21,42.59 -1.83,6.73 -3.61,13.33 -5.43,20.04 38.08,-12.89 76.05,-26.09 113.96,-39.44 l 6.68,-23.19" style="fill:#38281c;fill-opacity:1;fill-rule:nonzero;stroke:none" id="path162"/>
      <path d="m 2918.09,2865.72 c -12.89,4.11 -25.78,8.24 -38.67,12.37 -26.02,8.49 -52.03,17.01 -78.02,25.61 -2.01,7.43 -3.97,14.66 -5.98,22.08 30.08,-9.47 60.13,-19.05 90.16,-28.67 8.64,-2.82 17.27,-5.64 25.91,-8.46 l 6.6,-22.93" style="fill:#38281c;fill-opacity:1;fill-rule:nonzero;stroke:none" id="path164"/>
      <path d="m 2957.05,2730.41 c -36.89,13.3 -73.72,26.78 -110.53,40.32 -3.37,1.26 -6.74,2.52 -10.12,3.78 -2.13,7.87 -4.25,15.72 -6.38,23.57 7.82,-2.86 15.64,-5.73 23.46,-8.61 32.38,-12.09 64.75,-24.22 97.07,-36.49 l 6.5,-22.57" style="fill:#38281c;fill-opacity:1;fill-rule:nonzero;stroke:none" id="path166"/>
      <path d="m 3001.12,2577.36 c -41.05,13.81 -81.95,27.99 -122.79,42.37 -2.08,7.68 -4.15,15.33 -6.23,23.02 41.2,-15 82.35,-30.16 123.35,-45.71 l 5.67,-19.68" style="fill:#38281c;fill-opacity:1;fill-rule:nonzero;stroke:none" id="path168"/>
      <path d="m 3044.24,2427.6 c -16.82,4.96 -33.62,9.98 -50.39,15.07 -24.59,7.37 -49.13,14.87 -73.64,22.47 -1.91,7.06 -3.8,14.02 -5.71,21.09 28.09,-9.43 56.15,-18.97 84.15,-28.7 13.71,-4.71 27.4,-9.46 41.08,-14.26 l 4.51,-15.67" style="fill:#38281c;fill-opacity:1;fill-rule:nonzero;stroke:none" id="path170"/>
      <path d="m 3795,892.602 -805,-605 -584,313.199 -291.7,156.398 -159.3,85.403 253.5,85.699 L 3020,1202.6 3354.7,1068.7 3795,892.602" style="fill:#f5f5f5;fill-opacity:1;fill-rule:nonzero;stroke:none" id="path172"/>
      <path d="m 2905,442.602 620,495 -620,-495" style="fill:#f5f5f5;fill-opacity:1;fill-rule:nonzero;stroke:none" id="path174"/>
      <path d="m 2905,442.602 c 49.26,44.269 99.31,87.546 150.15,129.82 50.67,42.5 102.08,84.09 153.61,125.488 51.78,41.121 103.71,82.031 156.37,122.031 52.49,40.239 105.78,79.45 159.87,117.661 -49.24,-44.293 -99.28,-87.582 -150.13,-129.84 -50.68,-42.5 -102.08,-84.09 -153.63,-125.473 -51.8,-41.098 -103.73,-82.008 -156.39,-122.008 -52.49,-40.23 -105.77,-79.449 -159.85,-117.679" style="fill:#3f2d1f;fill-opacity:1;fill-rule:nonzero;stroke:none" id="path176"/>
      <path d="m 2755,552.602 620,440 -620,-440" style="fill:#f5f5f5;fill-opacity:1;fill-rule:nonzero;stroke:none" id="path178"/>
      <path d="m 2755,552.602 c 49.43,39.808 99.6,78.597 150.5,116.339 50.74,37.969 102.17,74.981 153.72,111.809 51.77,36.531 103.68,72.852 156.27,108.219 52.42,35.59 105.59,70.133 159.51,103.633 C 3325.59,952.77 3275.43,913.969 3224.51,876.23 3173.77,838.27 3122.35,801.262 3070.78,764.449 3019,727.941 2967.09,691.621 2914.5,656.262 2862.07,620.672 2808.91,586.121 2755,552.602" style="fill:#3f2d1f;fill-opacity:1;fill-rule:nonzero;stroke:none" id="path180"/>
      <path d="M 2600,662.602 3240,1052.6 2600,662.602" style="fill:#f5f5f5;fill-opacity:1;fill-rule:nonzero;stroke:none" id="path182"/>
      <path d="m 2600,662.602 c 51.32,35.796 103.31,70.519 155.96,104.14 52.5,33.86 105.61,66.719 158.83,99.399 53.43,32.347 106.99,64.48 161.15,95.621 54.01,31.386 108.71,61.658 164.06,90.838 -51.31,-35.82 -103.28,-70.549 -155.94,-104.159 -52.51,-33.859 -105.61,-66.73 -158.86,-99.382 -53.43,-32.317 -106.99,-64.457 -161.16,-95.598 -54.01,-31.379 -108.7,-61.66 -164.04,-90.859" style="fill:#3f2d1f;fill-opacity:1;fill-rule:nonzero;stroke:none" id="path184"/>
      <path d="M 2355,752.602 3130,1102.6 2355,752.602" style="fill:#f5f5f5;fill-opacity:1;fill-rule:nonzero;stroke:none" id="path186"/>
      <path d="m 2355,752.602 c 62.99,32.687 126.5,64.218 190.55,94.578 63.92,30.629 128.34,60.179 192.84,89.531 64.65,29.008 129.41,57.777 194.65,85.499 65.12,27.98 130.78,54.76 196.96,80.39 -62.99,-32.7 -126.49,-64.26 -190.54,-94.61 -63.92,-30.611 -128.34,-60.17 -192.85,-89.502 C 2681.94,889.5 2617.19,860.719 2551.95,833.02 2486.83,805.051 2421.17,778.238 2355,752.602" style="fill:#3f2d1f;fill-opacity:1;fill-rule:nonzero;stroke:none" id="path188"/>
      <path d="m 2406,600.801 v 0 L 2338.28,637.109 2535,742.602 2424.39,780 c 19.1,7.672 38.15,15.449 57.15,23.32 l 126.96,-58.121 h 0.1 c 2.63,1.031 5.32,2.063 8.08,3.082 1.23,-4.941 2.22,-7.781 2.22,-7.781 l 22.2,16.121 c 41.25,13.059 93.58,24.961 153.26,34.66 -12.83,-8.133 -25.64,-16.312 -38.4,-24.539 -52.65,-33.621 -104.64,-68.344 -155.96,-104.14 v 0 0 c 55.34,29.199 110.03,59.48 164.04,90.859 25.55,14.687 50.96,29.598 76.29,44.641 38.42,5.199 79.23,9.468 121.57,12.597 51.08,3.781 100.22,5.571 145.85,5.571 0.66,0 1.34,0 2,0 -16.87,-11.801 -33.71,-23.649 -50.53,-35.52 -51.55,-36.828 -102.98,-73.84 -153.72,-111.809 -16.26,-12.05 -32.44,-24.211 -48.55,-36.48 -9.46,-0.152 -18.79,-0.223 -27.99,-0.223 -161.4,0 -279.16,22.383 -285.86,58.563 l -137.1,-90 m 473.84,32.148 c 11.59,7.723 23.14,15.492 34.66,23.313 52.59,35.359 104.5,71.679 156.28,108.187 23.94,17.09 47.85,34.223 71.67,51.473 79.07,-1.66 145.44,-9.012 190.09,-20.91 -41.54,-32 -82.71,-64.492 -123.78,-97.102 -15.42,-12.39 -30.83,-24.789 -46.21,-37.23 -56.4,-9.918 -120.17,-17.871 -187.85,-22.879 -32.54,-2.41 -64.31,-4 -94.86,-4.852 m 324.11,35.633 c 5.76,4.566 11.53,9.137 17.29,13.707 43.92,35.262 87.73,70.66 131.08,106.652 25.74,-9.152 40.53,-20.359 41.48,-33.242 2.3,-30.48 -73.51,-63.039 -189.85,-87.117 m -789.11,114.637 -83.94,28.383 -141.01,47.668 c 149.19,33.32 300.8,67.378 441.63,99.371 0.25,-21.86 -0.05,-48.02 -1.9,-71.84 -0.28,-0.129 -0.56,-0.262 -0.84,-0.391 l -212.28,-53.308 51.29,-23.481 c -17.69,-8.711 -35.34,-17.512 -52.95,-26.402 m 259.42,124.191 c 0.66,19.731 1.36,40.5 2.09,61.43 104.02,23.691 201.28,46.07 286.14,65.93 -9.83,-4.16 -19.65,-8.35 -29.45,-12.56 -65.24,-27.722 -130,-56.491 -194.65,-85.499 -21.39,-9.731 -42.77,-19.492 -64.13,-29.301 m 59.69,5.41 c 4.22,1.891 8.44,3.782 12.66,5.668 64.51,29.332 128.93,58.891 192.85,89.502 18.78,8.9 37.51,17.9 56.19,27 3.03,-17.46 6.55,-35.42 10.55,-53.799 L 2733.95,912.82 m 335.13,84.16 c -2.74,20.08 -5.53,40.75 -8.25,61 91.88,21.92 161.06,39.19 196.85,49.53 l 97.02,-38.81 -143.47,-36.03 c 9.61,6.61 19.2,13.25 28.77,19.93 v 0 c -15,-7.91 -29.95,-15.9 -44.86,-23.96 l -126.06,-31.66" style="fill:#dadada;fill-opacity:1;fill-rule:nonzero;stroke:none" id="path190"/>
      <path d="m 3162.55,660.68 c 15.38,12.441 30.79,24.84 46.21,37.23 41.07,32.61 82.24,65.102 123.78,97.102 7.17,-1.903 13.77,-3.93 19.78,-6.071 -43.35,-35.992 -87.16,-71.39 -131.08,-106.652 -5.76,-4.57 -11.53,-9.141 -17.29,-13.707 -13.3,-2.75 -27.11,-5.391 -41.4,-7.902" style="fill:#38281c;fill-opacity:1;fill-rule:nonzero;stroke:none" id="path192"/>
      <path d="m 2856.95,632.461 c 16.11,12.269 32.29,24.43 48.55,36.48 50.74,37.969 102.17,74.981 153.72,111.809 16.82,11.871 33.66,23.719 50.53,35.52 11.12,-0.008 22.02,-0.129 32.7,-0.348 -23.82,-17.25 -47.73,-34.383 -71.67,-51.473 -51.78,-36.508 -103.69,-72.828 -156.28,-108.187 -11.52,-7.821 -23.07,-15.59 -34.66,-23.313 -7.7,-0.207 -15.34,-0.367 -22.89,-0.488" style="fill:#38281c;fill-opacity:1;fill-rule:nonzero;stroke:none" id="path194"/>
      <path d="m 2600,662.602 v 0 0" style="fill:#dadada;fill-opacity:1;fill-rule:nonzero;stroke:none" id="path196"/>
      <path d="m 2600,662.602 v 0 0 c 51.32,35.796 103.31,70.519 155.96,104.14 12.76,8.227 25.57,16.406 38.4,24.539 14.89,2.418 30.22,4.699 45.97,6.821 -25.33,-15.043 -50.74,-29.954 -76.29,-44.641 -54.01,-31.379 -108.7,-61.66 -164.04,-90.859 m 595.14,366.038 c 14.91,8.06 29.86,16.05 44.86,23.96 v 0 0 c -9.57,-6.68 -19.16,-13.32 -28.77,-19.93 l -16.09,-4.03" style="fill:#38281c;fill-opacity:1;fill-rule:nonzero;stroke:none" id="path198"/>
      <path d="m 2424.39,780 -9.55,3.219 c 17.61,8.89 35.26,17.691 52.95,26.402 l 13.75,-6.301 c -19,-7.871 -38.05,-15.648 -57.15,-23.32 m 204.39,106.41 c 0.28,0.129 0.56,0.262 0.84,0.391 0,-0.071 -0.01,-0.121 -0.01,-0.192 l -0.83,-0.199 m 45.15,11.34 c 0.11,3.18 0.22,6.41 0.33,9.66 21.36,9.809 42.74,19.57 64.13,29.301 64.65,29.008 129.41,57.777 194.65,85.499 9.8,4.21 19.62,8.4 29.45,12.56 10.86,2.54 21.48,5.03 31.93,7.49 0.4,-2.41 0.81,-4.84 1.23,-7.27 -18.68,-9.1 -37.41,-18.1 -56.19,-27 -63.92,-30.611 -128.34,-60.17 -192.85,-89.502 -4.22,-1.886 -8.44,-3.777 -12.66,-5.668 l -60.02,-15.07" style="fill:#38281c;fill-opacity:1;fill-rule:nonzero;stroke:none" id="path200"/>
      <path d="m 2535,742.602 -1035,-555 -805,605 398.3,159.296 376.7,150.702 860.9,-290.998 204.1,-69" style="fill:#f5f5f5;fill-opacity:1;fill-rule:nonzero;stroke:none" id="path202"/>
      <path d="m 1585,322.602 -620,495 620,-495" style="fill:#f5f5f5;fill-opacity:1;fill-rule:nonzero;stroke:none" id="path204"/>
      <path d="m 1585,322.602 c -54.08,38.23 -107.36,77.449 -159.85,117.679 -52.66,40 -104.59,80.91 -156.38,122.008 -51.56,41.383 -102.96,82.973 -153.64,125.473 -50.85,42.258 -100.89,85.547 -150.13,129.84 54.09,-38.211 107.39,-77.422 159.87,-117.661 52.66,-40 104.59,-80.91 156.37,-122.031 51.54,-41.398 102.94,-82.988 153.61,-125.488 50.84,-42.274 100.89,-85.551 150.15,-129.82" style="fill:#3f2d1f;fill-opacity:1;fill-rule:nonzero;stroke:none" id="path206"/>
      <path d="m 1735,432.602 -620,440 620,-440" style="fill:#f5f5f5;fill-opacity:1;fill-rule:nonzero;stroke:none" id="path208"/>
      <path d="m 1735,432.602 c -53.9,33.519 -107.07,68.07 -159.5,103.66 -52.59,35.359 -104.5,71.679 -156.29,108.187 -51.56,36.813 -102.98,73.821 -153.73,111.781 -50.9,37.739 -101.06,76.54 -150.48,116.372 53.92,-33.5 107.09,-68.043 159.52,-103.633 52.58,-35.367 104.5,-71.688 156.27,-108.219 51.54,-36.828 102.97,-73.84 153.71,-111.809 50.91,-37.742 101.07,-76.531 150.5,-116.339" style="fill:#3f2d1f;fill-opacity:1;fill-rule:nonzero;stroke:none" id="path210"/>
      <path d="m 1890,542.602 -640,390 640,-390" style="fill:#f5f5f5;fill-opacity:1;fill-rule:nonzero;stroke:none" id="path212"/>
      <path d="m 1890,542.602 c -55.34,29.199 -110.03,59.48 -164.04,90.859 -54.17,31.141 -107.72,63.281 -161.16,95.609 -53.24,32.641 -106.35,65.512 -158.86,99.371 -52.65,33.61 -104.63,68.34 -155.94,104.161 55.36,-29.18 110.05,-59.454 164.06,-90.84 54.16,-31.141 107.72,-63.274 161.14,-95.621 53.23,-32.68 106.34,-65.539 158.84,-99.399 52.65,-33.621 104.64,-68.344 155.96,-104.14" style="fill:#3f2d1f;fill-opacity:1;fill-rule:nonzero;stroke:none" id="path214"/>
      <path d="m 2135,632.602 -775,350 775,-350" style="fill:#f5f5f5;fill-opacity:1;fill-rule:nonzero;stroke:none" id="path216"/>
      <path d="m 2135,632.602 c -66.17,25.648 -131.83,52.449 -196.95,80.418 -65.24,27.71 -130,56.48 -194.66,85.468 -64.51,29.332 -128.92,58.891 -192.85,89.504 -64.05,30.348 -127.56,61.899 -190.54,94.61 66.18,-25.622 131.84,-52.411 196.96,-80.391 65.24,-27.723 130,-56.492 194.65,-85.5 64.5,-29.352 128.91,-58.902 192.84,-89.531 64.04,-30.36 127.56,-61.891 190.55,-94.578" style="fill:#3f2d1f;fill-opacity:1;fill-rule:nonzero;stroke:none" id="path218"/>
      <path d="m 1200,527.602 -28.54,113.468 c 32.28,-26.461 64.76,-52.66 97.31,-78.781 5.56,-4.41 11.12,-8.82 16.68,-13.23 L 1200,527.602 m 109.57,27.519 c -9.44,7.598 -18.88,15.199 -28.33,22.789 -38.83,30.832 -77.75,61.559 -116.99,91.86 l -70.95,282.128 73.52,29.411 45.9,-171.098 c -32.3,21.187 -64.87,41.98 -97.72,62.391 v 0 0 c 33.83,-27.27 68.01,-54.063 102.54,-80.352 L 1255,652.602 c 0,0 43.24,9.449 117.02,25.648 15.71,-11.301 31.45,-22.559 47.19,-33.801 21.59,-15.219 43.2,-30.41 64.88,-45.508 l -174.52,-43.82 m 198.72,49.899 c -25.76,18.691 -51.61,37.23 -77.5,55.73 -10.97,7.738 -21.94,15.469 -32.93,23.18 49.12,10.789 109.13,23.992 177.13,38.98 39.65,-23.961 79.38,-47.789 119.4,-71.148 l -186.1,-46.742 m 208.99,52.492 c -37.88,24.218 -76.06,47.98 -114.33,71.558 60.87,13.422 127.46,28.129 197.95,43.731 45.57,-20.25 91.24,-40.281 137.15,-59.781 0.04,-0.02 0.07,-0.028 0.11,-0.051 l -220.88,-55.457 m 244.53,61.398 c -5.78,2.77 -11.57,5.52 -17.36,8.27 -37.23,17.84 -74.62,35.312 -112.1,52.59 112.72,24.96 234.32,51.98 357.54,79.5 L 2330.9,811.602 1961.81,718.91" style="fill:#dadada;fill-opacity:1;fill-rule:nonzero;stroke:none" id="path220"/>
      <path d="m 1285.45,549.059 c -5.56,4.41 -11.12,8.82 -16.68,13.23 -32.55,26.121 -65.03,52.32 -97.31,78.781 l -7.21,28.7 c 39.24,-30.301 78.16,-61.028 116.99,-91.86 9.45,-7.59 18.89,-15.191 28.33,-22.789 l -24.12,-6.062" style="fill:#38281c;fill-opacity:1;fill-rule:nonzero;stroke:none" id="path222"/>
      <path d="m 1115,872.602 v 0" style="fill:#dadada;fill-opacity:1;fill-rule:nonzero;stroke:none" id="path224"/>
      <path d="m 1484.09,598.941 c -21.68,15.098 -43.29,30.289 -64.88,45.508 -15.74,11.242 -31.48,22.5 -47.19,33.801 8.26,1.82 16.84,3.699 25.84,5.68 10.99,-7.711 21.96,-15.442 32.93,-23.18 25.89,-18.5 51.74,-37.039 77.5,-55.73 l -24.2,-6.079 M 1217.54,792.25 c -34.53,26.289 -68.71,53.082 -102.54,80.352 v 0 0 c 32.85,-20.411 65.42,-41.204 97.72,-62.391 l 4.82,-17.961" style="fill:#38281c;fill-opacity:1;fill-rule:nonzero;stroke:none" id="path226"/>
      <path d="m 1694.39,651.762 c -40.02,23.359 -79.75,47.187 -119.4,71.148 9.19,2.02 18.48,4.07 27.96,6.16 38.27,-23.578 76.45,-47.34 114.33,-71.558 l -22.89,-5.75" style="fill:#38281c;fill-opacity:1;fill-rule:nonzero;stroke:none" id="path228"/>
      <path d="m 1938.16,712.969 c -0.04,0.023 -0.07,0.031 -0.11,0.051 -45.91,19.5 -91.58,39.531 -137.15,59.781 10.36,2.301 20.92,4.64 31.45,6.969 37.48,-17.278 74.87,-34.75 112.1,-52.59 5.79,-2.75 11.58,-5.5 17.36,-8.27 l -23.65,-5.941" style="fill:#38281c;fill-opacity:1;fill-rule:nonzero;stroke:none" id="path230"/>
      <path d="m 410,3802.6 2030,435 c 0,0 840,-3100 845,-3120 5,-20 -2030,-464.998 -2030,-464.998 L 410,3802.6" style="fill:#f5f5f5;fill-opacity:1;fill-rule:nonzero;stroke:none" id="path232"/>
      <path d="M 1124.1,3325.62 725,3282.6 l -120,420 435,15 84.1,-391.98" style="fill:#e3e3e3;fill-opacity:1;fill-rule:nonzero;stroke:none" id="path234"/>
      <path d="M 1284.1,2675.62 885,2632.6 l -120,420 435,15 84.1,-391.98" style="fill:#e3e3e3;fill-opacity:1;fill-rule:nonzero;stroke:none" id="path236"/>
      <path d="m 1454.1,2045.63 -399.1,-43.03 -120,420 435,15 84.1,-391.97" style="fill:#e3e3e3;fill-opacity:1;fill-rule:nonzero;stroke:none" id="path238"/>
      <path d="m 1614.1,1435.63 -399.1,-43.03 -120,420 435,15 84.1,-391.97" style="fill:#e3e3e3;fill-opacity:1;fill-rule:nonzero;stroke:none" id="path240"/>
      <path d="M 1759.1,875.629 1360,832.602 1240,1252.6 l 435,15 84.1,-391.971" style="fill:#e3e3e3;fill-opacity:1;fill-rule:nonzero;stroke:none" id="path242"/>
      <path d="m 1130,3592.6 1290,315" style="fill:#f5f5f5;fill-opacity:1;fill-rule:nonzero;stroke:none" id="path244"/>
      <path d="m 1130,3592.6 c 106.58,30.01 213.47,58.78 320.65,86.3 107.13,27.8 214.53,54.47 321.98,80.91 107.54,26.08 215.14,51.92 323.02,76.62 107.81,24.98 215.93,48.7 324.35,71.17 -106.58,-30.02 -213.46,-58.81 -320.65,-86.33 -107.12,-27.8 -214.52,-54.46 -321.98,-80.88 -107.55,-26.06 -215.15,-51.89 -323.02,-76.59 -107.82,-24.97 -215.93,-48.71 -324.35,-71.2" style="fill:#3f2d1f;fill-opacity:1;fill-rule:nonzero;stroke:none" id="path246"/>
      <path d="m 1205,3462.6 1235,300" style="fill:#f5f5f5;fill-opacity:1;fill-rule:nonzero;stroke:none" id="path248"/>
      <path d="m 1205,3462.6 c 102.01,28.75 204.31,56.28 306.91,82.55 102.54,26.56 205.36,51.97 308.23,77.16 102.96,24.83 205.98,49.42 309.26,72.87 103.24,23.73 206.76,46.2 310.6,67.42 -102,-28.78 -204.3,-56.31 -306.9,-82.58 -102.55,-26.55 -205.37,-51.96 -308.24,-77.13 -102.97,-24.81 -205.98,-49.39 -309.27,-72.84 -103.23,-23.72 -206.76,-46.2 -310.59,-67.45" style="fill:#3f2d1f;fill-opacity:1;fill-rule:nonzero;stroke:none" id="path250"/>
      <path d="m 1270,3067.6 1305,310" style="fill:#f5f5f5;fill-opacity:1;fill-rule:nonzero;stroke:none" id="path252"/>
      <path d="m 1270,3067.6 c 107.86,29.59 216.01,57.95 324.45,85.06 108.39,27.39 217.03,53.64 325.74,79.66 108.79,25.67 217.64,51.09 326.75,75.37 109.06,24.56 218.41,47.86 328.06,69.91 -107.85,-29.61 -216,-57.99 -324.44,-85.09 -108.39,-27.38 -217.04,-53.63 -325.75,-79.63 -108.79,-25.64 -217.65,-51.06 -326.76,-75.34 -109.06,-24.55 -218.41,-47.86 -328.05,-69.94" style="fill:#3f2d1f;fill-opacity:1;fill-rule:nonzero;stroke:none" id="path254"/>
      <path d="m 1310,2947.6 1290,315 -1290,-315" style="fill:#f5f5f5;fill-opacity:1;fill-rule:nonzero;stroke:none" id="path256"/>
      <path d="m 1310,2947.6 c 106.58,30 213.47,58.78 320.65,86.3 107.13,27.8 214.53,54.47 321.98,80.91 107.54,26.08 215.14,51.92 323.01,76.62 107.82,24.98 215.94,48.69 324.36,71.17 -106.58,-30.02 -213.46,-58.81 -320.64,-86.33 -107.13,-27.8 -214.53,-54.46 -321.99,-80.88 -107.55,-26.06 -215.15,-51.89 -323.02,-76.59 -107.82,-24.97 -215.93,-48.71 -324.35,-71.2" style="fill:#3f2d1f;fill-opacity:1;fill-rule:nonzero;stroke:none" id="path258"/>
      <path d="m 1385,2817.6 1235,300 -1235,-300" style="fill:#f5f5f5;fill-opacity:1;fill-rule:nonzero;stroke:none" id="path260"/>
      <path d="m 1385,2817.6 c 102.01,28.75 204.31,56.27 306.91,82.55 102.54,26.56 205.36,51.97 308.23,77.16 102.96,24.83 205.97,49.42 309.26,72.87 103.24,23.73 206.76,46.2 310.6,67.42 -102,-28.78 -204.3,-56.31 -306.9,-82.58 -102.55,-26.55 -205.37,-51.96 -308.24,-77.13 -102.97,-24.81 -205.98,-49.4 -309.27,-72.84 -103.23,-23.72 -206.76,-46.21 -310.59,-67.45" style="fill:#3f2d1f;fill-opacity:1;fill-rule:nonzero;stroke:none" id="path262"/>
      <path d="m 1450,2382.6 1305,310 -1305,-310" style="fill:#f5f5f5;fill-opacity:1;fill-rule:nonzero;stroke:none" id="path264"/>
      <path d="m 1450,2382.6 c 107.86,29.59 216.01,57.95 324.45,85.06 108.39,27.39 217.03,53.64 325.74,79.66 108.79,25.67 217.64,51.09 326.75,75.37 109.06,24.56 218.41,47.86 328.06,69.91 -107.85,-29.61 -216,-57.99 -324.44,-85.09 -108.39,-27.38 -217.04,-53.63 -325.75,-79.63 -108.79,-25.64 -217.65,-51.06 -326.76,-75.34 -109.06,-24.55 -218.41,-47.86 -328.05,-69.94" style="fill:#3f2d1f;fill-opacity:1;fill-rule:nonzero;stroke:none" id="path266"/>
      <path d="m 1490,2262.6 1290,315 -1290,-315" style="fill:#f5f5f5;fill-opacity:1;fill-rule:nonzero;stroke:none" id="path268"/>
      <path d="m 1490,2262.6 c 106.58,30 213.47,58.77 320.65,86.3 107.13,27.8 214.53,54.47 321.98,80.91 107.54,26.08 215.14,51.92 323.01,76.62 107.82,24.98 215.94,48.69 324.36,71.17 -106.58,-30.02 -213.46,-58.81 -320.64,-86.33 -107.13,-27.8 -214.53,-54.46 -321.99,-80.88 -107.55,-26.06 -215.15,-51.89 -323.02,-76.59 -107.82,-24.97 -215.93,-48.71 -324.35,-71.2" style="fill:#3f2d1f;fill-opacity:1;fill-rule:nonzero;stroke:none" id="path270"/>
      <path d="m 1565,2132.6 1235,300 -1235,-300" style="fill:#f5f5f5;fill-opacity:1;fill-rule:nonzero;stroke:none" id="path272"/>
      <path d="m 1565,2132.6 c 102.01,28.75 204.31,56.28 306.91,82.56 102.54,26.54 205.36,51.96 308.23,77.15 102.96,24.83 205.97,49.42 309.26,72.87 103.24,23.73 206.76,46.2 310.6,67.42 -102,-28.78 -204.3,-56.31 -306.9,-82.58 -102.55,-26.55 -205.37,-51.96 -308.24,-77.13 -102.97,-24.81 -205.98,-49.39 -309.27,-72.85 -103.23,-23.72 -206.76,-46.19 -310.59,-67.44" style="fill:#3f2d1f;fill-opacity:1;fill-rule:nonzero;stroke:none" id="path274"/>
      <path d="m 1625,1787.6 1305,310 -1305,-310" style="fill:#f5f5f5;fill-opacity:1;fill-rule:nonzero;stroke:none" id="path276"/>
      <path d="m 1625,1787.6 c 107.86,29.59 216.01,57.95 324.45,85.06 108.39,27.39 217.03,53.63 325.74,79.67 108.79,25.66 217.64,51.07 326.75,75.36 109.06,24.57 218.41,47.86 328.06,69.91 -107.85,-29.62 -216,-57.99 -324.44,-85.09 -108.39,-27.38 -217.04,-53.63 -325.75,-79.64 -108.79,-25.63 -217.65,-51.05 -326.76,-75.33 -109.06,-24.56 -218.41,-47.87 -328.05,-69.94" style="fill:#3f2d1f;fill-opacity:1;fill-rule:nonzero;stroke:none" id="path278"/>
      <path d="m 1665,1667.6 1290,315 -1290,-315" style="fill:#f5f5f5;fill-opacity:1;fill-rule:nonzero;stroke:none" id="path280"/>
      <path d="m 1665,1667.6 c 106.58,30 213.47,58.77 320.65,86.3 107.13,27.8 214.53,54.46 321.98,80.91 107.54,26.08 215.14,51.91 323.01,76.62 107.82,24.98 215.94,48.7 324.36,71.17 -106.58,-30.03 -213.46,-58.81 -320.65,-86.33 -107.12,-27.79 -214.52,-54.46 -321.98,-80.88 -107.55,-26.05 -215.15,-51.89 -323.02,-76.59 -107.82,-24.97 -215.93,-48.7 -324.35,-71.2" style="fill:#3f2d1f;fill-opacity:1;fill-rule:nonzero;stroke:none" id="path282"/>
      <path d="m 1740,1537.6 1235,300 -1235,-300" style="fill:#f5f5f5;fill-opacity:1;fill-rule:nonzero;stroke:none" id="path284"/>
      <path d="m 1740,1537.6 c 102,28.75 204.31,56.28 306.91,82.56 102.54,26.54 205.37,51.96 308.23,77.15 102.96,24.83 205.97,49.42 309.26,72.87 103.24,23.73 206.76,46.2 310.6,67.42 -102,-28.78 -204.3,-56.31 -306.9,-82.58 -102.55,-26.55 -205.37,-51.96 -308.24,-77.13 -102.97,-24.81 -205.98,-49.39 -309.27,-72.85 -103.23,-23.72 -206.76,-46.19 -310.59,-67.44" style="fill:#3f2d1f;fill-opacity:1;fill-rule:nonzero;stroke:none" id="path286"/>
      <path d="m 1770,1232.6 1305,310 -1305,-310" style="fill:#f5f5f5;fill-opacity:1;fill-rule:nonzero;stroke:none" id="path288"/>
      <path d="m 1770,1232.6 c 107.86,29.59 216.01,57.95 324.45,85.06 108.38,27.39 217.03,53.63 325.74,79.67 108.79,25.66 217.64,51.07 326.75,75.36 109.06,24.57 218.41,47.86 328.06,69.91 -107.85,-29.62 -216,-57.99 -324.44,-85.09 -108.39,-27.38 -217.04,-53.63 -325.75,-79.64 -108.79,-25.63 -217.64,-51.05 -326.76,-75.33 -109.06,-24.56 -218.41,-47.87 -328.05,-69.94" style="fill:#3f2d1f;fill-opacity:1;fill-rule:nonzero;stroke:none" id="path290"/>
      <path d="m 1810,1112.6 1290,315 -1290,-315" style="fill:#f5f5f5;fill-opacity:1;fill-rule:nonzero;stroke:none" id="path292"/>
      <path d="m 1810,1112.6 c 106.58,30 213.47,58.77 320.65,86.3 107.12,27.8 214.53,54.46 321.98,80.91 107.54,26.08 215.14,51.91 323.01,76.62 107.82,24.98 215.94,48.7 324.36,71.17 -106.58,-30.03 -213.46,-58.81 -320.65,-86.33 -107.12,-27.79 -214.52,-54.46 -321.98,-80.88 -107.55,-26.05 -215.14,-51.89 -323.02,-76.59 -107.82,-24.97 -215.93,-48.7 -324.35,-71.2" style="fill:#3f2d1f;fill-opacity:1;fill-rule:nonzero;stroke:none" id="path294"/>
      <path d="M 1885,982.602 3120,1282.6 1885,982.602" style="fill:#f5f5f5;fill-opacity:1;fill-rule:nonzero;stroke:none" id="path296"/>
      <path d="m 1885,982.602 c 102,28.748 204.31,56.278 306.91,82.558 102.54,26.54 205.37,51.96 308.23,77.15 102.96,24.83 205.97,49.42 309.26,72.87 103.24,23.73 206.76,46.2 310.6,67.42 -102,-28.78 -204.3,-56.31 -306.9,-82.58 -102.55,-26.55 -205.37,-51.96 -308.24,-77.13 -102.97,-24.81 -205.98,-49.39 -309.27,-72.85 -103.23,-23.72 -206.76,-46.19 -310.59,-67.438" style="fill:#3f2d1f;fill-opacity:1;fill-rule:nonzero;stroke:none" id="path298"/>
      <path d="m 1090,3712.6 1305,310" style="fill:#f5f5f5;fill-opacity:1;fill-rule:nonzero;stroke:none" id="path300"/>
      <path d="m 1090,3712.6 c 107.86,29.6 216.01,57.95 324.45,85.06 108.39,27.39 217.03,53.64 325.74,79.66 108.79,25.66 217.64,51.09 326.76,75.37 109.05,24.56 218.4,47.86 328.05,69.91 -107.85,-29.62 -216,-57.99 -324.45,-85.09 -108.38,-27.38 -217.03,-53.63 -325.74,-79.63 -108.79,-25.64 -217.65,-51.06 -326.76,-75.34 -109.06,-24.56 -218.41,-47.86 -328.05,-69.94" style="fill:#3f2d1f;fill-opacity:1;fill-rule:nonzero;stroke:none" id="path302"/>
      <path d="m 740,3451.26 121.699,-73.66 54.446,16.02 c 0,0 76.863,349.08 185.745,457.97 l -118.492,16.01 c 0,0 -96.078,-333.07 -96.078,-435.56 L 791.238,3512.11 740,3451.26" style="fill:#c42b36;fill-opacity:1;fill-rule:nonzero;stroke:none" id="path304"/>
      <path d="m 955,2816.26 121.7,-73.66 54.44,16.02 c 0,0 76.87,349.08 185.75,457.96 l -118.49,16.02 c 0,0 -96.08,-333.07 -96.08,-435.56 l -96.08,80.07 -51.24,-60.85" style="fill:#c42b36;fill-opacity:1;fill-rule:nonzero;stroke:none" id="path306"/>
      <path d="m 1120,2156.26 121.7,-73.66 54.44,16.02 c 0,0 76.87,349.08 185.75,457.96 l -118.49,16.02 c 0,0 -96.08,-333.07 -96.08,-435.56 l -96.08,80.07 -51.24,-60.85" style="fill:#c42b36;fill-opacity:1;fill-rule:nonzero;stroke:none" id="path308"/>
      <path d="m 1255,1531.26 121.7,-73.66 54.44,16.02 c 0,0 76.87,349.08 185.75,457.96 l -118.49,16.02 c 0,0 -96.08,-333.07 -96.08,-435.56 l -96.08,80.07 -51.24,-60.85" style="fill:#c42b36;fill-opacity:1;fill-rule:nonzero;stroke:none" id="path310"/>
      <path d="m 1385,986.262 121.7,-73.66 54.44,16.019 c 0,0 76.87,349.079 185.75,457.959 l -118.49,16.02 c 0,0 -96.08,-333.07 -96.08,-435.561 l -96.08,80.071 -51.24,-60.848" style="fill:#c42b36;fill-opacity:1;fill-rule:nonzero;stroke:none" id="path312"/>
      <g id="g314">
        <g id="g316" clip-path="url(#clipPath320)">
          <path d="m 2688.4,3301.67 h 9.1016 v 19.1484 H 2688.4 Z" style="fill:#a5b2b4;fill-opacity:1;fill-rule:nonzero;stroke:none" id="path322"/>
        </g>
      </g>
      <path d="m 2550.48,2663.57 c -24.67,0 -105.48,16.53 -105.48,16.53 l 10,82.5 c -70,0 -67.5,87.5 -67.5,87.5 -75.17,68.9 -58.13,146.63 -34.91,195.1 89.37,23.18 178.5,47.31 267.41,72.4 v 0 c -86.38,-17.65 -172.54,-36.17 -258.51,-55.56 11.02,19.05 21.01,30.56 21.01,30.56 0,47.2 9.47,85.68 23.76,116.88 64.69,17.25 129.27,34.96 193.74,53.12 v 0 c -62.53,-12.96 -124.96,-26.34 -187.3,-40.13 45.74,85.53 127.3,110.13 127.3,110.13 l 148.4,-11.78 c 1.7,-6.29 3.47,-12.83 5.19,-19.15 -22.45,-105.64 -133.84,-629.83 -136.09,-636.57 -0.36,-1.07 -2.91,-1.53 -7.02,-1.53" style="fill:#b9c8cb;fill-opacity:1;fill-rule:nonzero;stroke:none" id="path324"/>
      <path d="m 2406.26,3209.48 c 2.05,4.48 4.2,8.81 6.44,12.99 62.34,13.79 124.77,27.17 187.3,40.13 v 0 0 c -64.47,-18.16 -129.05,-35.87 -193.74,-53.12" style="fill:#30251a;fill-opacity:1;fill-rule:nonzero;stroke:none" id="path326"/>
      <path d="m 2352.59,3045.2 c 2.93,6.1 5.95,11.74 8.9,16.84 85.97,19.39 172.13,37.91 258.51,55.56 v 0 0 c -88.91,-25.09 -178.04,-49.22 -267.41,-72.4" style="fill:#30251a;fill-opacity:1;fill-rule:nonzero;stroke:none" id="path328"/>
      <path d="m 2616.68,748.281 c -3.79,15.199 -9.89,50.36 3.32,84.321 3.29,8.468 5.7,19.937 7.44,32.988 15.38,6.73 30.75,13.512 46.1,20.308 -2.05,-61.609 -3.54,-108.296 -3.54,-108.296 l -28.9,-20.981 c -8.63,-2.73 -16.79,-5.519 -24.42,-8.34" style="fill:#b9c8cb;fill-opacity:1;fill-rule:nonzero;stroke:none" id="path330"/>
      <path d="m 2627.44,865.59 c 0.89,6.66 1.6,13.73 2.17,21.019 l 44.32,11.141 c -0.13,-4.008 -0.26,-7.961 -0.39,-11.852 -15.35,-6.796 -30.72,-13.578 -46.1,-20.308" style="fill:#30251a;fill-opacity:1;fill-rule:nonzero;stroke:none" id="path332"/>
      <path d="m 2618.9,740.5 c 0,0 -0.99,2.84 -2.22,7.781 7.63,2.821 15.79,5.61 24.42,8.34 L 2618.9,740.5 m 10.72,146.301 c 1.85,23.82 2.15,49.98 1.9,71.84 15.13,3.441 29.96,6.808 44.83,10.199 -0.73,-20.93 -1.43,-41.699 -2.09,-61.43 -14.89,-6.84 -29.78,-13.711 -44.64,-20.609" style="fill:#a5b2b4;fill-opacity:1;fill-rule:nonzero;stroke:none" id="path334"/>
      <path d="m 2629.61,886.609 c 0,0.071 0.01,0.121 0.01,0.192 14.86,6.898 29.75,13.769 44.64,20.609 -0.11,-3.25 -0.22,-6.48 -0.33,-9.66 l -44.32,-11.141" style="fill:#2a2117;fill-opacity:1;fill-rule:nonzero;stroke:none" id="path336"/>
      <path d="m 2631.52,958.641 c -0.31,28 -1.52,48.959 -1.52,48.959 0,0 0,0 -17.5,87.5 -4.31,21.55 -7.86,38.09 -9.95,51.8 27.16,6.71 54.33,13.46 81.46,20.27 -1.74,-31.75 -4.83,-116.16 -7.66,-198.33 -14.87,-3.391 -29.7,-6.758 -44.83,-10.199 m -30.93,207.779 c -0.89,28.74 10.05,46.51 44.41,88.68 16.03,19.68 27.6,40.84 35.95,60.95 22.64,5.74 45.27,11.51 67.89,17.34 -26.94,-63.43 -53.09,-125.7 -61.26,-146.37 -29.02,-6.81 -58,-13.68 -86.99,-20.6 m 87.85,169.79 c 13.13,39.89 14.06,71.39 14.06,71.39 l -48.95,25.7 c 32.36,7.99 64.69,16.05 97.01,24.21 19.29,4.82 38.57,9.68 57.84,14.58 -11.95,-27.25 -31.52,-72.83 -51.6,-119.99 -22.8,-5.25 -45.58,-10.55 -68.36,-15.89 m -59.22,109.86 -26.72,14.03 17.5,162.5 c -68.59,9 -151.84,36.7 -222.69,64.47 90.37,22.17 180.68,44.62 270.79,67.95 47.18,12.08 94.29,24.43 141.34,37.04 7.2,-159.56 12.52,-291.52 10.56,-294.46 -0.48,-0.72 -2.08,-4.11 -4.58,-9.66 -22.84,-5.03 -45.66,-10.11 -68.48,-15.25 -39.27,-8.74 -78.5,-17.63 -117.72,-26.62 m -263.65,253.75 c -71,29.25 -123.07,55.28 -123.07,55.28 7.15,14.82 14.05,31.1 20.66,48.39 16.4,3.96 32.81,7.93 49.21,11.9 107.46,26.42 214.86,53.09 321.98,80.88 56.17,14.42 112.24,29.19 168.24,44.3 2.18,-46.51 4.35,-93.26 6.38,-138.03 -48.26,-10.51 -96.44,-21.3 -144.57,-32.36 -99.79,-22.66 -199.34,-46.38 -298.83,-70.36 m -94.2,126.05 c 12.58,35.69 24.04,74.59 34.18,113.17 100.11,23.99 200.17,48.25 300.01,73.47 63.86,15.96 127.62,32.36 191.28,49.2 1.73,-36.18 3.52,-73.8 5.3,-111.66 -57.25,-12.52 -114.42,-25.4 -171.5,-38.62 -107.87,-24.71 -215.47,-50.54 -323.01,-76.62 -12.09,-2.98 -24.18,-5.95 -36.26,-8.94 m 39.78,134.93 c 29.35,116.65 46.35,224.3 46.35,224.3 -15.68,14.76 -31.36,63.54 -44.91,119.24 60.23,14.96 120.42,30.12 180.51,45.68 89.02,22.79 177.81,46.53 266.37,71.21 l 23.03,-66.13 c 0,0 6.4,-127.94 13.94,-285.01 -64.94,-13.69 -129.77,-27.82 -194.5,-42.4 -97.09,-21.61 -193.97,-44.11 -290.79,-66.89 m -2.96,362.19 c -9.82,42.84 -18.31,87.91 -24.53,123.61 58.62,14.65 117.19,29.49 175.7,44.67 84.29,21.64 168.39,44.07 252.3,67.26 l 46.83,-134.48 c -89.92,-18.68 -179.61,-38.3 -269.09,-58.87 -60.48,-13.73 -120.87,-27.85 -181.21,-42.19 m -27.75,142.41 c -5.04,29.93 -7.94,49.7 -7.94,49.7 -13.01,3.25 -36.58,25.53 -51.48,40.72 69.92,16.92 139.78,34.07 209.54,51.69 46.34,11.58 92.64,23.4 138.88,35.44 l 115.56,-7.85 25.13,-72.16 c -85.01,-18.07 -169.85,-36.9 -254.49,-56.51 -58.47,-13.39 -116.86,-27.11 -175.2,-41.03 m -82.11,104.98 -323.33,9.72 -246.07,126.76 901.51,-61.26 c -34.53,-7.51 -69.03,-15.14 -103.5,-22.91 -76.31,-16.98 -152.49,-34.52 -228.61,-52.31" style="fill:#b9c8cb;fill-opacity:1;fill-rule:nonzero;stroke:none" id="path338"/>
      <path d="m 2221.02,2555.82 c -8.01,8.16 -13.52,14.28 -13.52,14.28 l -9.17,0.28 c 76.12,17.79 152.3,35.33 228.61,52.31 34.47,7.77 68.97,15.4 103.5,22.91 l 39,-2.65 c -46.24,-12.04 -92.54,-23.86 -138.88,-35.44 -69.76,-17.62 -139.62,-34.77 -209.54,-51.69" style="fill:#30251a;fill-opacity:1;fill-rule:nonzero;stroke:none" id="path340"/>
      <path d="m 2283.66,2446.6 c -1.16,6.62 -2.23,12.9 -3.22,18.8 58.34,13.92 116.73,27.64 175.2,41.03 84.64,19.61 169.48,38.44 254.49,56.51 l 1.53,-4.41 c -83.91,-23.19 -168.01,-45.62 -252.3,-67.26 -58.51,-15.18 -117.08,-30.02 -175.7,-44.67" style="fill:#30251a;fill-opacity:1;fill-rule:nonzero;stroke:none" id="path342"/>
      <path d="m 2312.59,2304.34 c -1.49,6.15 -2.96,12.38 -4.4,18.65 60.34,14.34 120.73,28.46 181.21,42.19 89.48,20.57 179.17,40.19 269.09,58.87 l 0.98,-2.82 c -88.56,-24.68 -177.35,-48.42 -266.37,-71.21 -60.09,-15.56 -120.28,-30.72 -180.51,-45.68" style="fill:#30251a;fill-opacity:1;fill-rule:nonzero;stroke:none" id="path344"/>
      <path d="m 2305.55,1939.04 c 1.91,7.27 3.78,14.53 5.6,21.76 96.82,22.78 193.7,45.28 290.79,66.89 64.73,14.58 129.56,28.71 194.5,42.4 0.13,-2.79 0.26,-5.57 0.4,-8.38 -63.66,-16.84 -127.42,-33.24 -191.28,-49.2 -99.84,-25.22 -199.9,-49.48 -300.01,-73.47" style="fill:#30251a;fill-opacity:1;fill-rule:nonzero;stroke:none" id="path346"/>
      <path d="m 2263.16,1803.49 c 2.79,7.3 5.52,14.76 8.21,22.38 12.08,2.99 24.17,5.96 36.26,8.94 107.54,26.08 215.14,51.91 323.01,76.62 57.08,13.22 114.25,26.1 171.5,38.62 0.15,-3.15 0.3,-6.33 0.45,-9.48 -56,-15.11 -112.07,-29.88 -168.24,-44.3 -107.12,-27.79 -214.52,-54.46 -321.98,-80.88 -16.4,-3.97 -32.81,-7.94 -49.21,-11.9" style="fill:#30251a;fill-opacity:1;fill-rule:nonzero;stroke:none" id="path348"/>
      <path d="m 2397.31,1687.07 c -10.9,4.27 -21.52,8.55 -31.74,12.75 99.49,23.98 199.04,47.7 298.83,70.36 48.13,11.06 96.31,21.85 144.57,32.36 0.15,-3.5 0.31,-7 0.47,-10.48 -47.05,-12.61 -94.16,-24.96 -141.34,-37.04 -90.11,-23.33 -180.42,-45.78 -270.79,-67.95" style="fill:#30251a;fill-opacity:1;fill-rule:nonzero;stroke:none" id="path350"/>
      <path d="m 2653.55,1433.3 -24.33,12.77 c 39.22,8.99 78.45,17.88 117.72,26.62 22.82,5.14 45.64,10.22 68.48,15.25 -1.86,-4.14 -4.23,-9.5 -7.02,-15.85 -19.27,-4.9 -38.55,-9.76 -57.84,-14.58 -32.32,-8.16 -64.65,-16.22 -97.01,-24.21" style="fill:#30251a;fill-opacity:1;fill-rule:nonzero;stroke:none" id="path352"/>
      <path d="m 2680.95,1316.05 c 2.86,6.88 5.34,13.63 7.49,20.16 22.78,5.34 45.56,10.64 68.36,15.89 -2.65,-6.22 -5.31,-12.48 -7.96,-18.71 -22.62,-5.83 -45.25,-11.6 -67.89,-17.34" style="fill:#30251a;fill-opacity:1;fill-rule:nonzero;stroke:none" id="path354"/>
      <path d="m 2602.55,1146.9 c -1.09,7.18 -1.78,13.59 -1.96,19.52 28.99,6.92 57.97,13.79 86.99,20.6 -1.5,-3.78 -2.39,-6.17 -2.58,-6.92 -0.24,-0.97 -0.58,-5.52 -0.99,-12.93 -27.13,-6.81 -54.3,-13.56 -81.46,-20.27" style="fill:#30251a;fill-opacity:1;fill-rule:nonzero;stroke:none" id="path356"/>
      <path d="m 1628.93,2706.86 -9.43,0.64 8,0.1 1.43,-0.74" style="fill:#b9c8cb;fill-opacity:1;fill-rule:nonzero;stroke:none" id="path358"/>
      <path d="m 3036.11,838.832 c -0.37,0 -1.11,2.098 -1.11,2.098 l 1.25,0.109 c 0.15,-1.66 0.05,-2.207 -0.14,-2.207 m 0.14,2.207 c -0.48,5.313 -3.46,21.961 -13.76,68.262 18.03,11.32 36.01,22.711 53.93,34.219 7.68,-55.711 13.58,-97.59 13.58,-97.59 l -53.75,-4.891 m -17.99,87.09 c -2.43,10.73 -5.17,22.742 -8.26,36.133 -1.31,5.679 -2.58,11.328 -3.8,16.929 l 62.88,15.789 c 1.69,-12.398 3.36,-24.57 4.97,-36.3 -18.66,-10.75 -37.25,-21.598 -55.79,-32.551" style="fill:#b9c8cb;fill-opacity:1;fill-rule:nonzero;stroke:none" id="path360"/>
      <path d="m 3022.49,909.301 c -1.29,5.801 -2.7,12.058 -4.23,18.828 18.54,10.953 37.13,21.801 55.79,32.551 0.81,-5.848 1.59,-11.571 2.37,-17.16 -17.92,-11.508 -35.9,-22.899 -53.93,-34.219" style="fill:#30251a;fill-opacity:1;fill-rule:nonzero;stroke:none" id="path362"/>
      <path d="m 3006.2,981.191 c -4,18.379 -7.52,36.339 -10.55,53.799 9.9,4.83 19.77,9.67 29.64,14.55 12.2,2.89 24.04,5.7 35.54,8.44 2.72,-20.25 5.51,-40.92 8.25,-61 l -62.88,-15.789" style="fill:#a5b2b4;fill-opacity:1;fill-rule:nonzero;stroke:none" id="path364"/>
      <path d="m 2995.65,1034.99 c -0.42,2.43 -0.83,4.86 -1.23,7.27 10.49,2.46 20.83,4.9 30.87,7.28 -9.87,-4.88 -19.74,-9.72 -29.64,-14.55" style="fill:#2a2117;fill-opacity:1;fill-rule:nonzero;stroke:none" id="path366"/>
      <path d="m 2994.42,1042.26 c -14.17,84.97 -16.3,157.22 -4.57,204.34 22.02,5.97 44.03,12 66.03,18.08 -7.34,-24.53 -13.13,-43.26 -14.21,-45.42 -1.5,-3 8.12,-78.77 19.16,-161.28 -11.5,-2.74 -23.34,-5.55 -35.54,-8.44 -10.04,-2.38 -20.38,-4.82 -30.87,-7.28 m -1.99,213.61 c 4.05,12.97 9.34,23.66 15.91,31.72 36.67,45 25,73.34 25,73.34 -3.52,-0.41 -7.98,-0.59 -13.22,-0.59 -28.37,0 -79.46,5.45 -125.09,11.15 66.78,17.75 133.45,35.99 200,54.71 -1.01,-16.99 -1.69,-28.96 -1.69,-30.27 0,-3.27 -20.74,-75.18 -35.98,-126.29 -21.65,-4.54 -43.3,-9.13 -64.93,-13.77 m -131.51,120.04 c -34.06,4.56 -59.25,8.35 -59.25,8.35 0,0 27.56,65.59 45.37,97.72 76.13,19.58 152.12,39.79 227.96,60.62 v 0 c -72.9,-14.66 -145.67,-29.87 -218.31,-45.64 1.35,1.51 2.46,2.34 3.31,2.34 10,0.04 243.34,63.29 243.34,63.29 0,0 -5.43,-87.83 -8.29,-136.02 -78.2,-16.23 -156.24,-33.12 -234.13,-50.66" style="fill:#b9c8cb;fill-opacity:1;fill-rule:nonzero;stroke:none" id="path368"/>
      <path d="m 2847.04,1481.98 c 3.77,6.82 7.11,12.13 9.65,14.98 72.64,15.77 145.41,30.98 218.31,45.64 v 0 0 c -75.84,-20.83 -151.83,-41.04 -227.96,-60.62" style="fill:#30251a;fill-opacity:1;fill-rule:nonzero;stroke:none" id="path370"/>
      <path d="m 2895.03,1371.49 c -11.91,1.49 -23.44,2.99 -34.11,4.42 77.89,17.54 155.93,34.43 234.13,50.66 -0.01,-0.12 -0.02,-0.25 -0.02,-0.37 -66.55,-18.72 -133.22,-36.96 -200,-54.71" style="fill:#30251a;fill-opacity:1;fill-rule:nonzero;stroke:none" id="path372"/>
      <path d="m 2989.85,1246.6 c 0.8,3.21 1.66,6.3 2.58,9.27 21.63,4.64 43.28,9.23 64.93,13.77 -0.5,-1.67 -1,-3.33 -1.48,-4.96 -22,-6.08 -44.01,-12.11 -66.03,-18.08" style="fill:#30251a;fill-opacity:1;fill-rule:nonzero;stroke:none" id="path374"/>
      <path d="m 3447.5,1777.6 c -6.4,-4.2 -12.9,-8.3 -19.4,-12.3 -497.9,-307.2 -1158.1,-2.7 -1158.1,-2.7 137.5,235 215,1132.5 215,1132.5 67.9,-41.7 130.6,-71.9 188.1,-92.8 32.1,-11.6 62.5,-20.4 91.5,-26.6 369.3,-79.2 495.4,251.9 495.4,251.9 -48.8,15 -97.2,27.2 -144.6,37.1 -300.5,62.9 -561.1,32.6 -650.2,18.6 -21.2,-3.3 -32.7,-5.7 -32.7,-5.7 0,0 -4.1,13 -7.2,33.8 -10.6,71 -9.4,233.4 207.2,283.7 207,48.1 352.6,-41.9 414.3,-92 21.8,-17.8 33.2,-30.5 33.2,-30.5 420,75 367.5,-1495 367.5,-1495" style="fill:#3f2d1f;fill-opacity:1;fill-rule:nonzero;stroke:none" id="path376"/>
      <path d="m 3046.8,3303.1 c -549.7,193.7 -584.2,-117.6 -581.6,-219.8 -21.2,-3.3 -32.7,-5.7 -32.7,-5.7 0,0 -80,252.5 200,317.5 207,48.1 352.6,-41.9 414.3,-92" style="fill:#593e2d;fill-opacity:1;fill-rule:nonzero;stroke:none" id="path378"/>
      <path d="m 3447.5,1777.6 c -6.4,-4.2 -12.9,-8.3 -19.4,-12.3 7.4,116.7 8.2,368.3 -38.1,802.3 -67.5,632.5 -310,705 -310,705 420,75 367.5,-1495 367.5,-1495" style="fill:#593e2d;fill-opacity:1;fill-rule:nonzero;stroke:none" id="path380"/>
      <path d="m 2465.2,3083.3 c -21.2,-3.3 -32.7,-5.7 -32.7,-5.7 0,0 -4.1,13 -7.2,33.8 104.4,13.4 478.6,52.2 690.1,-46.7 -300.5,62.9 -561.1,32.6 -650.2,18.6" style="fill:#593e2d;fill-opacity:1;fill-rule:nonzero;stroke:none" id="path382"/>
      <path d="m 2907.5,1695.1 c -7.2,-78.9 -26.3,-151.9 -49.6,-216.9 -15,-42.2 -31.9,-81 -48.4,-115.8 -37.8,-80 -73.7,-139 -82,-169.8 -17.5,-65 -32.5,-372.498 -32.5,-372.498 28,-15 51.3,-44.801 69,-75.301 26.6,-45.5 41,-92.199 41,-92.199 -135,-42.5 -207.5,87.5 -207.5,87.5 0,0 1.8,6 4.8,15 h 0.1 c 4.6,13.796 12.5,34.699 22,52.398 4.1,7.5 8.5,14.5 13.1,20.102 22.5,27.5 -20,299.998 -15,349.998 5,50 65,72.5 85,177.5 7.8,41.1 20.2,108.8 32.4,176.2 19.1,105 37.6,208.8 37.6,208.8 l 130,-45" style="fill:#efb5af;fill-opacity:1;fill-rule:nonzero;stroke:none" id="path384"/>
      <path d="m 2857.9,1478.2 c -15,-42.2 -31.9,-81 -48.4,-115.8 -15.6,2.3 -37.7,7.1 -67.8,16.9 0,0 -50,-145 -90,-186.7 -40,-41.7 56.6,-283.299 -16.7,-404.998 -11.7,-19.403 -22.6,-29.403 -32.6,-32.5 4.6,13.796 12.5,34.699 22,52.398 4.1,7.5 8.5,14.5 13.1,20.102 22.5,27.5 -20,299.998 -15,349.998 5,50 65,72.5 85,177.5 7.8,41.1 20.2,108.8 32.4,176.2 9.3,12 15.1,19.6 15.1,19.6 0,0 103.3,-46.6 105,-51.6 0.4,-1.2 -0.5,-9.3 -2.1,-21.1" style="fill:#db9191;fill-opacity:1;fill-rule:nonzero;stroke:none" id="path386"/>
      <path d="m 2805,652.602 c -135,-42.5 -207.5,87.5 -207.5,87.5 0,0 11.1,38.097 26.9,67.398 2.9,-6.301 6.3,-13.199 10.1,-20.5 29.2,-55.898 82.8,-130.102 129.5,-42.199 24,-41.102 38.1,-83.102 40.6,-90.903 l 0.4,-1.296" style="fill:#ab1e28;fill-opacity:1;fill-rule:nonzero;stroke:none" id="path388"/>
      <path d="m 2805,652.602 c -135,-42.5 -207.5,87.5 -207.5,87.5 0,0 11.1,38.097 26.9,67.398 2.9,-6.301 6.3,-13.199 10.1,-20.5 -4.8,-5.602 -39,-48.602 13.8,-84.398 41.7,-28.204 118.5,-42.903 156.3,-48.704 l 0.4,-1.296" style="fill:#891a37;fill-opacity:1;fill-rule:nonzero;stroke:none" id="path390"/>
      <path d="m 2710,1244.26 c 1.75,-7.19 1.68,-12.94 1.75,-18.65 -0.07,-2.83 0,-5.56 -0.16,-8.45 l 0.08,-9.57 c -3.49,1.45 -6.04,4.4 -7.65,7.67 -1.59,3.29 -2.17,6.89 -2.26,10.39 0.12,3.49 0.7,6.92 2.07,10.09 1.32,3.17 3.16,6.19 6.17,8.52" style="fill:#3f2d1f;fill-opacity:1;fill-rule:nonzero;stroke:none" id="path392"/>
      <path d="M 3268.3,775.898 C 3245.4,761 3203,759.301 3158.9,763 c -74.4,6.199 -153.9,27.898 -153.9,27.898 0,0 -10,53.403 10,80 2.3,3.102 4.3,6.602 5.9,10.602 12.7,30.699 6,89.699 -17.6,194.4 -26.6,118.4 -5,171.7 30,213.4 21.4,25.5 21.6,154 18.6,249.9 -1.9,60.7 -5.2,108.4 -5.2,108.4 l 100,55 c 10.6,-119.9 9.8,-199.6 3.3,-256.5 -3.5,-31.2 -8.7,-55.5 -14.6,-75.7 -15.5,-52.8 -35.7,-78.1 -43.7,-126.1 -16.7,-100 -6.7,-333.402 -6.7,-333.402 47.7,-25.5 93,-58.597 126.5,-85.796 34.6,-27.801 56.8,-49.204 56.8,-49.204" style="fill:#efb5af;fill-opacity:1;fill-rule:nonzero;stroke:none" id="path394"/>
      <path d="M 3190,809.301 3158.9,763 c -74.4,6.199 -153.9,27.898 -153.9,27.898 0,0 -10,53.403 10,80 2.3,3.102 4.3,6.602 5.9,10.602 12.7,30.699 6,89.699 -17.6,194.4 -26.6,118.4 -5,171.7 30,213.4 21.4,25.5 21.6,154 18.6,249.9 29.3,-12.5 93.1,-43.3 93.1,-43.3 l 5,-49.8 c -3.5,-31.2 -8.7,-55.5 -14.6,-75.7 -18.3,-6.6 -46.3,-14.5 -75.4,-14.5 0,0 0,-60 -38.3,-128.3 -38.4,-68.3 30,-324.998 30,-324.998 0,0 -6.7,-80 138.3,-93.301" style="fill:#db9191;fill-opacity:1;fill-rule:nonzero;stroke:none" id="path396"/>
      <path d="m 3268.3,775.898 -2.2,-1.296 c -64,-37.403 -261.1,16.296 -261.1,16.296 0,0 -10,53.403 10,80 2.3,3.102 4.3,6.602 5.9,10.602 4.5,-5.602 10.6,-12.602 18.3,-19.898 31.6,-30.204 89.9,-66 172.3,-36.5 34.6,-27.801 56.8,-49.204 56.8,-49.204" style="fill:#ab1e28;fill-opacity:1;fill-rule:nonzero;stroke:none" id="path398"/>
      <path d="m 3266.1,774.602 c -64,-37.403 -261.1,16.296 -261.1,16.296 0,0 -10,53.403 10,80 2.3,3.102 4.3,6.602 5.9,10.602 4.5,-5.602 10.6,-12.602 18.3,-19.898 -7.3,-17.704 -20.2,-55.102 -2.5,-64 20.4,-10.204 147.6,-26.801 229.4,-23" style="fill:#891a37;fill-opacity:1;fill-rule:nonzero;stroke:none" id="path400"/>
      <path d="m 3063.34,1285.93 c 3.53,-6.06 4.74,-11.25 6.16,-16.2 l 1.8,-7.29 c 0.7,-2.41 1.4,-4.85 2.87,-8.18 -3.58,-0.32 -7.06,1.51 -9.49,4.05 -2.57,2.53 -3.91,5.75 -4.86,8.92 -0.75,3.23 -0.96,6.47 -0.39,9.65 0.53,3.15 1.6,6.28 3.91,9.05" style="fill:#3f2d1f;fill-opacity:1;fill-rule:nonzero;stroke:none" id="path402"/>
      <path d="m 3258.3,1450.9 c -305,-181.6 -631.6,21.7 -631.6,21.7 38.3,360 243.3,585 243.3,585 43,-19.4 80.9,-28.1 113.7,-30 105.6,-6.4 158,56.7 158,56.7 76.6,-104.1 108.1,-504.3 115,-608.5 1.1,-15.9 1.6,-24.9 1.6,-24.9" style="fill:#46479e;fill-opacity:1;fill-rule:nonzero;stroke:none" id="path404"/>
      <path d="m 3258.3,1450.9 c -305,-181.6 -631.6,21.7 -631.6,21.7 38.3,360 243.3,585 243.3,585 43,-19.4 80.9,-28.1 113.7,-30 23.6,-64.5 65,-190.9 53,-255 0,0 -143.4,-26.7 -263.4,56.7 0,0 -116.6,-266.7 -86.6,-326.7 27.2,-54.4 396.2,-141.8 570,-26.8 1.1,-15.9 1.6,-24.9 1.6,-24.9" style="fill:#383c84;fill-opacity:1;fill-rule:nonzero;stroke:none" id="path406"/>
      <path d="m 3886.7,2498.9 c -8.5,-12.9 -21.8,-25.4 -41.7,-36.3 l -49.2,3.8 -55.2,4.2 -102.4,7.9 -1745.7,134.1 -0.6,0.2 -136.7,47.5 -135.7,47.2 -22,7.6 17.8,1.9 1.7,0.2 142.1,15.2 165.9,17.7 2.7,-0.2 1710.8,-122.7 120,-8.6 58.4,-4.2 60.6,-4.3 c 0,0 43.3,-59.4 9.2,-111.2" style="fill:#efb5af;fill-opacity:1;fill-rule:nonzero;stroke:none" id="path408"/>
      <path d="m 3886.7,2498.9 c -8.5,-12.9 -21.8,-25.4 -41.7,-36.3 l -49.2,3.8 -55.2,4.2 -102.4,7.9 -1745.7,134.1 -0.6,0.2 -136.7,47.5 -135.7,47.2 -4.2,9.5 -0.3,0.6 2,-0.4 378,-79.6 1891.7,-138.7" style="fill:#db9191;fill-opacity:1;fill-rule:nonzero;stroke:none" id="path410"/>
      <path d="m 3886.7,2498.9 c -8.5,-12.9 -21.8,-25.4 -41.7,-36.3 l -49.2,3.8 -55.2,4.2 -102.4,7.9 -1745.7,134.1 -0.6,0.2 68.7,32.1 21.9,10.2 -95,40 102.5,5 -51.7,49.2 1700.2,-122.1 120,-8.6 58.4,-4.2 60.6,-4.3 c 0,0 43.3,-59.4 9.2,-111.2" style="fill:#db901b;fill-opacity:1;fill-rule:nonzero;stroke:none" id="path412"/>
      <path d="m 3886.7,2498.9 c -8.5,-12.9 -21.8,-25.4 -41.7,-36.3 l -49.2,3.8 -55.2,4.2 -102.4,7.9 -1745.7,134.1 -0.6,0.2 68.7,32.1 34.4,-7.3 1891.7,-138.7" style="fill:#c6761e;fill-opacity:1;fill-rule:nonzero;stroke:none" id="path414"/>
      <path d="m 3816.9,2614.4 -15.6,-109.2 -5.5,-38.8 -55.2,4.2 -102.4,7.9 c 1.5,12.8 2.6,25.8 3.2,38.4 2.1,43.3 -0.4,84 -2.9,110.3 l 120,-8.6 58.4,-4.2" style="fill:#9b9a9a;fill-opacity:1;fill-rule:nonzero;stroke:none" id="path416"/>
      <path d="m 3801.3,2505.2 -5.5,-38.8 -55.2,4.2 -102.4,7.9 c 1.5,12.8 2.6,25.8 3.2,38.4 l 159.9,-11.7" style="fill:#7c7c7c;fill-opacity:1;fill-rule:nonzero;stroke:none" id="path418"/>
      <path d="m 3886.7,2498.9 c -8.5,-12.9 -21.8,-25.4 -41.7,-36.3 l -49.2,3.8 -55.2,4.2 c 6.3,10.7 12.2,23.3 16.6,37.8 8.8,28.9 11.8,65.5 1.3,110.2 l 58.4,-4.2 60.6,-4.3 c 0,0 43.3,-59.4 9.2,-111.2" style="fill:#c42b36;fill-opacity:1;fill-rule:nonzero;stroke:none" id="path420"/>
      <path d="m 3886.7,2498.9 c -8.5,-12.9 -21.8,-25.4 -41.7,-36.3 l -49.2,3.8 -55.2,4.2 c 6.3,10.7 12.2,23.3 16.6,37.8 l 129.5,-9.5" style="fill:#ab1e28;fill-opacity:1;fill-rule:nonzero;stroke:none" id="path422"/>
      <path d="m 1755.2,2660.3 -157.7,54.8 161.6,17.3 c 5.5,-21.8 7.6,-48.6 -3.9,-72.1" style="fill:#3f2d1f;fill-opacity:1;fill-rule:nonzero;stroke:none" id="path424"/>
      <path d="m 2344.9,2629.3 c -11.4,-5.3 -23.9,-8.4 -36.6,-8.4 -83.3,0 -128.3,100 -128.3,100 0,0 -17.6,23 33.7,33.5 19.2,4 48.1,6.3 91.3,4.9 134.1,-4.2 103.2,-100.6 39.9,-130" style="fill:#efb5af;fill-opacity:1;fill-rule:nonzero;stroke:none" id="path426"/>
      <path d="m 2344.9,2629.3 c -11.4,-5.3 -23.9,-8.4 -36.6,-8.4 -83.3,0 -128.3,100 -128.3,100 0,0 -17.6,23 33.7,33.5 19.4,-39.8 59.4,-99.8 131.2,-125.1" style="fill:#db9191;fill-opacity:1;fill-rule:nonzero;stroke:none" id="path428"/>
      <path d="M 2275,2639.27 V 2747.6" style="fill:#efb5af;fill-opacity:1;fill-rule:nonzero;stroke:none" id="path430"/>
      <path d="m 2275,2639.27 c -3.95,18.05 -4.82,36.11 -5,54.16 0.15,18.06 1.04,36.11 5,54.17 3.96,-18.06 4.85,-36.11 5,-54.17 -0.18,-18.05 -1.05,-36.11 -5,-54.16" style="fill:#3f2d1f;fill-opacity:1;fill-rule:nonzero;stroke:none" id="path432"/>
      <path d="m 2336.67,2642.6 c 1.66,5 0,101.67 0,101.67" style="fill:#efb5af;fill-opacity:1;fill-rule:nonzero;stroke:none" id="path434"/>
      <path d="m 2336.67,2642.6 c -1.17,8.53 -2.55,16.94 -3.15,25.41 -0.8,8.45 -1.04,16.91 -1.22,25.37 0.01,16.93 0.68,33.87 4.37,50.89 4.24,-16.89 5.35,-33.84 5.63,-50.81 -0.02,-8.48 -0.21,-16.98 -1.01,-25.47 -0.87,-8.47 -1.65,-17.07 -4.62,-25.39" style="fill:#3f2d1f;fill-opacity:1;fill-rule:nonzero;stroke:none" id="path436"/>
      <path d="m 2667.5,2330.1 -124.4,-172.3 -31.4,-43.5 c -142.5,15 -164.2,185.8 -179.2,260.8 -15,75 -52.5,155 -52.5,155 -24.4,14.9 -44.4,38.6 -57.5,57.2 l 106.9,-8.3 3.88,-0.31 2.19,-0.15 c 4.06,0.62 1.23,-2.74 2.33,-0.14 16.7,39.2 67.2,39.2 67.2,39.2 -24,39 -21,78.6 -11.5,98.9 6.3,13.4 15.5,18.3 21.5,8.6 1.8,-2.9 4.1,-6.4 6.7,-10.6 16.8,-26.7 47,-77.6 38.3,-114.4 -2.8,-11.9 -10.1,-21.6 -19.1,-29.6 -23.3,-20.7 -58.4,-30 -58.4,-35.4 0,-7.5 7.5,-117.5 37.5,-152.5 30,-35 70,-112.5 70,-112.5 l 177.5,60" style="fill:#efb5af;fill-opacity:1;fill-rule:nonzero;stroke:none" id="path438"/>
      <path d="m 2543.1,2157.8 -31.4,-43.5 c -142.5,15 -164.2,185.8 -179.2,260.8 -15,75 -52.5,155 -52.5,155 -24.4,14.9 -44.4,38.6 -57.5,57.2 l 106.9,-8.3 4.51,-0.31 c -4.6,-10.99 -14.41,-26.29 -27.21,-36.09 0,0 111.6,-421.7 193.3,-398.3 l 40,26.6 c 0,0 1.2,-5.2 3.1,-13.1" style="fill:#db9191;fill-opacity:1;fill-rule:nonzero;stroke:none" id="path440"/>
      <path d="m 2397.5,2723.43 c 0,0 -15.84,-35 -9.17,-63.33" style="fill:#efb5af;fill-opacity:1;fill-rule:nonzero;stroke:none" id="path442"/>
      <path d="m 2397.5,2723.43 c -0.58,-11.45 -2.61,-21.63 -4.31,-31.92 l -2.58,-15.34 -2.28,-16.07 c -6.31,9.86 -6.78,22.15 -4.99,33.12 1.09,5.53 2.61,10.95 4.95,16.05 2.3,5.09 5.16,10 9.21,14.16" style="fill:#3f2d1f;fill-opacity:1;fill-rule:nonzero;stroke:none" id="path444"/>
      <path d="m 3528.4,2577.5 c -26.5,-20.8 -81.7,-9.9 -81.7,-9.9 -55,-1.7 -110,38.3 -106.7,80 0.9,11.4 14.2,21.9 33.6,29.2 51.4,19.4 145.4,17 164.7,-45.9 8.5,-27.4 2.4,-43.8 -9.9,-53.4" style="fill:#efb5af;fill-opacity:1;fill-rule:nonzero;stroke:none" id="path446"/>
      <path d="m 3528.4,2577.5 c -26.5,-20.8 -81.7,-9.9 -81.7,-9.9 -55,-1.7 -110,38.3 -106.7,80 0.9,11.4 14.2,21.9 33.6,29.2 1.3,-32.6 21.2,-95.7 154.8,-99.3" style="fill:#db9191;fill-opacity:1;fill-rule:nonzero;stroke:none" id="path448"/>
      <path d="m 3500,2580.1 c 0,0 15,60 -26.25,88.75" style="fill:#efb5af;fill-opacity:1;fill-rule:nonzero;stroke:none" id="path450"/>
      <path d="m 3500,2580.1 c -0.52,16.7 -1.3,32.43 -4.84,47.49 -1.69,7.53 -4.49,14.62 -7.85,21.55 -3.4,7 -8.31,13.03 -13.56,19.71 7.67,-3.26 14.98,-8.44 20.14,-15.49 5.25,-6.93 8.93,-15.06 10.98,-23.46 1.85,-8.44 2.47,-17.06 1.63,-25.49 -0.81,-8.42 -2.69,-16.75 -6.5,-24.31" style="fill:#3f2d1f;fill-opacity:1;fill-rule:nonzero;stroke:none" id="path452"/>
      <path d="m 3440,2582.6 c 0,0 15,60 -26.25,88.75" style="fill:#efb5af;fill-opacity:1;fill-rule:nonzero;stroke:none" id="path454"/>
      <path d="m 3440,2582.6 c -0.52,16.7 -1.3,32.43 -4.84,47.49 -1.69,7.53 -4.49,14.62 -7.85,21.55 -3.4,7 -8.31,13.03 -13.56,19.71 7.67,-3.26 14.98,-8.44 20.14,-15.49 5.25,-6.93 8.93,-15.06 10.98,-23.46 1.85,-8.44 2.47,-17.06 1.63,-25.49 -0.81,-8.42 -2.69,-16.75 -6.5,-24.31" style="fill:#3f2d1f;fill-opacity:1;fill-rule:nonzero;stroke:none" id="path456"/>
      <path d="m 3517.9,2487.7 c -14.4,-17.3 -44.6,-21.8 -44.6,-21.8 0,0 -11.6,0 -35,-143.3 -21.5,-132.2 -74.2,-209.2 -100.5,-228.1 -2.3,-1.6 -4.3,-2.8 -6.1,-3.6 -23.4,-10 -96.7,61.7 -96.7,61.7 l -26.7,80 h 91.7 c 11.7,18.3 30,48.3 65,105 35,56.7 48.3,140 48.3,140 l -14.5,19.3 -62.1,82.4 c 0,0 10,58.3 53.3,60 1.6,0.1 3.2,0.1 4.9,0.1 h 0.1 c 43.6,0.8 110,-8.5 110,-8.5 -1.7,-60 -86.7,-60 -86.7,-60 34.2,-11.4 30.7,-63 28.9,-77.7 -0.3,-2.5 -0.5,-3.9 -0.5,-3.9 l 3,3.7 68.2,-5.3" style="fill:#efb5af;fill-opacity:1;fill-rule:nonzero;stroke:none" id="path458"/>
      <path d="m 3337.8,2094.5 c -2.3,-1.6 -4.3,-2.8 -6.1,-3.6 -23.4,-10 -96.7,61.7 -96.7,61.7 l -26.7,80 h 91.7 c 11.7,18.3 30,48.3 65,105 35,56.7 48.3,140 48.3,140 l -14.5,19.3 -62.1,82.4 c 0,0 10,58.3 53.3,60 1.6,0.1 3.2,0.1 4.9,0.1 -16.4,-11.8 -40.3,-34.9 -26.6,-63.5 20,-41.6 61.7,-88.3 61.7,-88.3 0,0 -40,-185 -103.3,-248.3 -53.4,-53.4 -31.1,-129.2 11.1,-144.8" style="fill:#db9191;fill-opacity:1;fill-rule:nonzero;stroke:none" id="path460"/>
      <path d="m 3349.69,2613.16 c 6.02,12.27 16.63,23.61 31.01,27.57 7.23,2.05 14.36,1.81 21.24,2.21 6.98,0.24 13.94,0.31 20.88,0.15 27.81,-0.81 55.36,-3.46 82.84,-7.39 l 4.48,-0.64 -0.3,-4.3 c -0.72,-10.48 -3.62,-21.05 -9.71,-29.87 -6.21,-8.7 -14.91,-14.89 -23.91,-19.43 -9.1,-4.5 -18.74,-7.46 -28.53,-8.94 -9.77,-1.5 -19.61,-2.33 -29.39,-1.62 9.7,1.14 19.25,2.93 28.48,5.65 9.17,2.8 18.26,5.91 26.24,10.84 8.04,4.76 14.84,11.06 19.86,18.38 4.82,7.56 6.59,16.37 7.28,25.27 l 4.17,-4.93 c -27.22,3.29 -54.6,6.43 -81.93,8.47 -6.83,0.53 -13.66,1.11 -20.5,1.36 -6.85,0.15 -13.72,0.85 -19.96,-0.46 -6.34,-1.23 -12.53,-3.81 -17.97,-7.76 -5.41,-3.98 -10.1,-9.05 -14.28,-14.56" style="fill:#3f2d1f;fill-opacity:1;fill-rule:nonzero;stroke:none" id="path462"/>
      <path d="m 3023.3,2470.9 -25,-96.6 -82.6,24 -100.7,29.3 -35,101.7 13.3,151.6 78.5,8.2 26.5,2.7 3.1,-36.3 6.1,-70.3 4.2,-49.3 111.6,-65" style="fill:#efb5af;fill-opacity:1;fill-rule:nonzero;stroke:none" id="path464"/>
      <path d="m 2926.7,2400.9 -11,-2.6 -100.7,29.3 -35,101.7 13.3,151.6 78.5,8.2 c 9.6,-10.8 19.8,-22.4 29.6,-33.6 l 6.1,-70.3 c -29.5,-7.4 -69.1,-12.1 -100.8,2.4 l -3.4,-25 c 0,0 88.4,-78.3 123.4,-161.7" style="fill:#db9191;fill-opacity:1;fill-rule:nonzero;stroke:none" id="path466"/>
      <path d="m 3158.3,2112.6 -3,-16.5 -4.7,-25.6 c -2.9,5 -5.9,9.7 -8.9,13.8 0,0 -71.7,-86.4 -216.5,-46.8 l -91.9,401.8 c 0,0 30.3,-2.7 68.5,-2.2 52.6,0.5 120,6.8 143.2,33.8 l 101.7,-251.6 11.6,-106.7" style="fill:#f5f5f5;fill-opacity:1;fill-rule:nonzero;stroke:none" id="path468"/>
      <path d="m 3155.3,2096.1 -4.7,-25.6 c -2.9,5 -5.9,9.7 -8.9,13.8 0,0 -71.7,-86.4 -216.5,-46.8 l -91.9,401.8 c 0,0 30.3,-2.7 68.5,-2.2 27.1,-58 125.5,-277.8 115.7,-393.3 0,0 102.5,18.8 131.3,77.6 0,0 2.8,-10.7 6.5,-25.3" style="fill:#c1d0d3;fill-opacity:1;fill-rule:nonzero;stroke:none" id="path470"/>
      <path d="m 2905,2200.93 c 21.14,-2.52 41.68,-2.88 61.41,1.25 9.89,1.8 19.42,5.13 28.56,9.44 9.39,4.05 17.68,10.07 26.7,15.98 -6,-8.77 -13.49,-17.07 -22.88,-22.78 -4.41,-3.37 -9.62,-5.29 -14.54,-7.77 -5.21,-1.8 -10.43,-3.64 -15.85,-4.66 -10.8,-2.1 -21.89,-2.58 -32.67,-1.11 -10.74,1.46 -21.33,4.4 -30.73,9.65" style="fill:#3f2d1f;fill-opacity:1;fill-rule:nonzero;stroke:none" id="path472"/>
      <path d="m 3005,1807.6 c -118.3,-20 -261.7,81.7 -266.7,105 -5,23.3 93.4,160 93.4,160 -53.4,66.7 -146.7,216.7 -146.7,216.7 l -143.3,-153.4 c -0.4,12.7 -1.4,24.5 -2.9,35.3 -10.5,77.8 -43.8,110.2 -43.8,110.2 46.6,56.6 108.3,216.2 108.3,216.2 41.2,0 106.9,26.8 146,44.5 19.5,8.9 32.4,15.5 32.4,15.5 132.5,-143.1 186.5,-368 208.4,-534.3 12.5,-94.7 14.6,-170.3 14.8,-201 0.2,-9.5 0.1,-14.7 0.1,-14.7" style="fill:#c42b36;fill-opacity:1;fill-rule:nonzero;stroke:none" id="path474"/>
      <path d="m 3005,1807.6 c -118.3,-20 -261.7,81.7 -266.7,105 -5,23.3 93.4,160 93.4,160 -53.4,66.7 -146.7,216.7 -146.7,216.7 l -143.3,-153.4 c -0.4,12.7 -1.4,24.5 -2.9,35.3 l 142.9,163.1 c 0,0 165,-225 173.3,-265 8.3,-40 -76.7,-166.7 -76.7,-166.7 0,0 128.2,-80.3 226.6,-80.3 0.2,-9.5 0.1,-14.7 0.1,-14.7" style="fill:#ab1e28;fill-opacity:1;fill-rule:nonzero;stroke:none" id="path476"/>
      <path d="m 2813.3,2287.6 28.4,78.3 -93.4,33.4 c -8.1,60.1 -5.3,107.6 1,142.8 19.5,8.9 32.4,15.5 32.4,15.5 l 2.1,-2.3 c 121.2,-132.5 176.1,-333.6 200.9,-494 2,-13 3.8,-25.6 5.4,-38 -45.6,106 -176.8,264.3 -176.8,264.3" style="fill:#c42b36;fill-opacity:1;fill-rule:nonzero;stroke:none" id="path478"/>
      <path d="m 2813.3,2287.6 28.4,78.3 -93.4,33.4 c -8.1,60.1 -5.3,107.6 1,142.8 19.5,8.9 32.4,15.5 32.4,15.5 l 2.1,-2.3 c -7.3,-40.4 -18.2,-116.3 -3.8,-141.5 l 81.2,-36.2 -20,-90 c 0,0 87.4,-119.8 143.5,-226.3 2,-13 3.8,-25.6 5.4,-38 -45.6,106 -176.8,264.3 -176.8,264.3" style="fill:#ab1e28;fill-opacity:1;fill-rule:nonzero;stroke:none" id="path480"/>
      <path d="m 3180,2174.1 -19.9,15.1 c 0.4,-1.2 3.6,-9 8.3,-21.4 2.7,-6.9 5.9,-15.3 9.4,-24.7 1.7,-4.6 3.5,-9.4 5.4,-14.4 28.5,-76.8 71.2,-201.8 55.1,-221.1 -8.7,-10.5 -19.6,-19.2 -29.9,-25.9 -11.3,58.2 -24.7,111.7 -40.6,152.1 -1.4,3.5 -2.8,7 -4.2,10.3 -5.8,13.6 -11.9,25.4 -18.4,35.2 -16.7,84.5 -42.3,181.2 -80.7,265.2 -7.3,16.1 -15.1,31.7 -23.4,46.7 -34.1,61.4 -76.6,112 -129.4,139.7 l -1.7,26.7 c 0,0 22,-8.7 56.4,-17.9 19.9,-5.2 44,-10.6 70.4,-14.6 19.5,-2.9 40.2,-5.1 61.5,-5.8 0,0 3.2,-5.1 8.9,-13.9 33.5,-51.6 152.5,-231.2 199.5,-251.1 0,0 -34.1,-62.7 -35.2,-117.6 -0.4,-12.6 1.1,-24.9 5.2,-35.8 l -96.7,73.2" style="fill:#c42b36;fill-opacity:1;fill-rule:nonzero;stroke:none" id="path482"/>
      <path d="m 3180,2174.1 -19.9,15.1 c 0.4,-1.2 3.6,-9 8.3,-21.4 l -28.4,26.5 -75.5,150.2 -23.4,46.7 -74.7,148.5 c 19.9,-5.2 44,-10.6 70.4,-14.6 19.5,-2.9 40.2,-5.1 61.5,-5.8 0,0 3.2,-5.1 8.9,-13.9 l -12.2,-1.1 23.3,-35 -18.3,-38.4 c 0,0 96.7,-105 108.3,-151.6 l -3.3,-98.4 66.5,-44.2 c -0.4,-12.6 1.1,-24.9 5.2,-35.8 l -96.7,73.2" style="fill:#ab1e28;fill-opacity:1;fill-rule:nonzero;stroke:none" id="path484"/>
      <path d="m 3238.3,1907.6 c -8.7,-10.5 -19.6,-19.2 -29.9,-25.9 -11.3,58.2 -24.7,111.7 -40.6,152.1 l -7.8,125.5 23.2,-30.6 c 28.5,-76.8 71.2,-201.8 55.1,-221.1" style="fill:#ab1e28;fill-opacity:1;fill-rule:nonzero;stroke:none" id="path486"/>
      <path d="m 3180,2174.1 c -0.6,-10.2 -1.3,-20.6 -2.2,-31 -1.7,-20.2 -3.9,-40.6 -6.8,-59.6 v -0.1 c -2.1,-14 -4.5,-27.3 -7.4,-39.3 -5.8,13.6 -11.9,25.4 -18.4,35.2 -33.1,167 -100.5,381.7 -233.5,451.6 l -1.7,26.7 c 0,0 54.7,-21.7 126.8,-32.5 4.4,-3.3 8.7,-6.6 12.8,-9.9 19.8,-16 35.8,-32.3 43.7,-47.6 l -23.3,-35 c 0,0 101.7,-118.3 113.3,-146.7 0,0 0.4,-51.5 -3.3,-111.8" style="fill:#c42b36;fill-opacity:1;fill-rule:nonzero;stroke:none" id="path488"/>
      <path d="m 3171,2083.5 v -0.1 c -2.1,-14 -4.5,-27.3 -7.4,-39.3 -5.8,13.6 -11.9,25.4 -18.4,35.2 -33.1,167 -100.5,381.7 -233.5,451.6 l -1.7,26.7 c 0,0 54.7,-21.7 126.8,-32.5 4.4,-3.3 8.7,-6.6 12.8,-9.9 l -112.1,14.9 c 0,0 196.6,-124.2 233.5,-446.6" style="fill:#ab1e28;fill-opacity:1;fill-rule:nonzero;stroke:none" id="path490"/>
      <path d="m 2543.8,2840.1 c -1.8,-0.4 -3.6,-0.8 -5.4,-1.1 -54,-11.3 -92.9,0.7 -119,24.3 -60.4,54.2 -53.1,170.1 -8.2,205.5 4.8,3.8 9.6,7.1 14.4,9.8 58.5,34.5 105.6,-7.2 105.6,-7.2 l 11.3,-208.1 1.3,-23.2" style="fill:#efb5af;fill-opacity:1;fill-rule:nonzero;stroke:none" id="path492"/>
      <path d="m 2542.5,2863.3 -4.1,-24.3 c -54,-11.3 -92.9,0.7 -119,24.3 12.3,26 34.7,77.7 41.8,120.5 6.8,40.6 -18.5,76.1 -35.6,94.8 58.5,34.5 105.6,-7.2 105.6,-7.2 l 11.3,-208.1" style="fill:#db9191;fill-opacity:1;fill-rule:nonzero;stroke:none" id="path494"/>
      <path d="m 2407.5,3011.35 c 13.7,1.66 27.93,-0.94 40.92,-6.26 13.1,-5.22 24.91,-13.44 35.14,-23.13 9.94,-10.04 18.24,-21.54 24.51,-33.97 3.3,-6.12 5.49,-12.77 8.1,-19.13 1.8,-6.7 3.7,-13.31 5.08,-20.01 -3.53,5.98 -6.31,12.13 -9.57,18.04 -3.6,5.72 -6.65,11.69 -10.37,17.2 -3.92,5.39 -7.22,11.15 -11.67,16.04 -3.89,5.34 -8.53,9.97 -13.06,14.69 -9.37,9.1 -19.89,16.95 -31.44,23.22 -11.61,6.1 -24.11,11.07 -37.64,13.31" style="fill:#3f2d1f;fill-opacity:1;fill-rule:nonzero;stroke:none" id="path496"/>
      <path d="m 2523.8,2831.4 c 0,-23.9 -19.1,-43.3 -42.9,-43.8 h -0.9 c -24.2,0 -43.8,19.6 -43.8,43.8 0,14.5 7.1,27.3 18,35.2 7.3,5.4 16.1,8.5 25.8,8.5 24.2,0 43.8,-19.6 43.8,-43.7" style="fill:#f5f5f5;fill-opacity:1;fill-rule:nonzero;stroke:none" id="path498"/>
      <path d="m 2523.8,2831.4 c 0,-23.9 -19.1,-43.3 -42.9,-43.8 18.3,30.7 -12.4,65.3 -26.7,79 7.3,5.4 16.1,8.5 25.8,8.5 24.2,0 43.8,-19.6 43.8,-43.7" style="fill:#c1d0d3;fill-opacity:1;fill-rule:nonzero;stroke:none" id="path500"/>
      <path d="m 3346.4,2800 c -36.6,-19.9 -85.1,-19.9 -137.6,16.4 l 25,208.7 c 0,0 71,43.4 129.4,-3.5 11.7,-9.4 23,-22.4 33,-40.2 37.1,-65.7 9.3,-149.4 -49.8,-181.4" style="fill:#efb5af;fill-opacity:1;fill-rule:nonzero;stroke:none" id="path502"/>
      <path d="m 3346.4,2800 c -36.6,-19.9 -85.1,-19.9 -137.6,16.4 l 25,208.7 c 0,0 71,43.4 129.4,-3.5 -24.1,-0.5 -66.4,-4.8 -74.4,-27.8 0,0 43.7,-86.2 -6.3,-131.2 0,0 52.7,-21.1 63.9,-62.6" style="fill:#db9191;fill-opacity:1;fill-rule:nonzero;stroke:none" id="path504"/>
      <path d="m 3393.75,2957.6 c -13.79,1.6 -27.46,1.9 -40.93,1.62 -13.47,-0.5 -26.81,-1.96 -39.69,-5.1 -13.01,-2.81 -25.17,-8.21 -36.69,-14.72 l -8.49,-5.3 -7.86,-6.29 c -5.75,-3.79 -9.66,-9.43 -15.09,-13.96 6.78,11.94 15.2,23.96 27.1,32.04 11.48,8.41 24.74,14.75 38.66,17.94 27.8,6.36 57.19,4.24 82.99,-6.23" style="fill:#3f2d1f;fill-opacity:1;fill-rule:nonzero;stroke:none" id="path506"/>
      <path d="m 3306.2,2785.7 c 0,-26.6 -21.5,-48.1 -48.1,-48.1 -6.2,0 -12,1.2 -17.4,3.3 -18,6.9 -30.7,24.4 -30.7,44.8 0,26.6 21.5,48.1 48.1,48.1 9.8,0 18.9,-2.9 26.5,-7.9 13,-8.6 21.6,-23.4 21.6,-40.2" style="fill:#f5f5f5;fill-opacity:1;fill-rule:nonzero;stroke:none" id="path508"/>
      <path d="m 3240.7,2740.9 c -18,6.9 -30.7,24.4 -30.7,44.8 0,26.6 21.5,48.1 48.1,48.1 9.8,0 18.9,-2.9 26.5,-7.9 -20.5,-13 -59.6,-44.2 -43.9,-85" style="fill:#c1d0d3;fill-opacity:1;fill-rule:nonzero;stroke:none" id="path510"/>
      <path d="m 3267.5,2954.3 c 0,-37.5 -7.1,-73.6 -20.2,-107.3 -1.5,-3.9 -3,-7.8 -4.7,-11.6 -42.8,-98.7 -137.4,-175.7 -255.4,-206.4 -36.4,-9.6 -75,-14.7 -115.1,-14.7 -191.8,0 -351.7,117.4 -387.8,273.2 -5,21.6 -7.6,43.9 -7.6,66.8 0,41.6 8.7,81.5 24.6,118.4 2.5,5.7 5.1,11.3 7.9,16.8 122,15.1 375.6,31.8 657.1,-36.3 25.3,-6.1 50.8,-12.9 76.5,-20.5 5,-1.4 10.1,-2.9 15.1,-4.4 l 0.2,-0.1 0.1,-0.6 0.7,-2.6 c 5.6,-22.8 8.6,-46.4 8.6,-70.7" style="fill:#efb5af;fill-opacity:1;fill-rule:nonzero;stroke:none" id="path512"/>
      <path d="m 3247.3,2847 c -1.5,-3.9 -3,-7.8 -4.7,-11.6 -42.8,-98.7 -137.4,-175.7 -255.4,-206.4 58.2,26.7 166,84.9 211.1,166.9 0,0 -71.6,25 -70,70 0,0 73.4,-45 116.7,-20 l 2.3,1.1" style="fill:#db9191;fill-opacity:1;fill-rule:nonzero;stroke:none" id="path514"/>
      <path d="m 3196.7,3017.6 c -124.5,67 -650.9,56.1 -695.4,55.1 2.5,5.7 5.1,11.3 7.9,16.8 122,15.1 375.6,31.8 657.1,-36.3 25.3,-6.1 50.8,-12.9 76.5,-20.5 10.8,-27.8 4.3,-42.2 -46.1,-15.1" style="fill:#db9191;fill-opacity:1;fill-rule:nonzero;stroke:none" id="path516"/>
      <path d="m 2705,3045.1 c -11.79,-18.96 -22.64,-38.34 -32.03,-58.27 -9.06,-20.01 -17.1,-40.63 -20.24,-61.87 -3.34,-20.98 -0.24,-43.31 14.26,-58.67 6.89,-7.86 16.11,-13.76 26.03,-18.13 4.98,-2.14 10.06,-4.26 15.34,-5.81 l 16.02,-4.44 -0.08,0.01 0.1,-0.01 0.09,-0.01 6.71,-1.5 -6.87,0.3 h 0.07 l -0.1,-0.01 h -0.01 l -0.08,0.01 c -22.02,1.95 -45.56,7.26 -63.04,23.93 -8.68,8.13 -14.59,19.25 -17.37,30.79 -2.7,11.64 -2.57,23.55 -0.91,34.98 3.66,22.88 12.42,44.17 23.38,63.84 11,19.65 23.71,38.25 38.73,54.86" style="fill:#3f2d1f;fill-opacity:1;fill-rule:nonzero;stroke:none" id="path518"/>
      <path d="m 2695,2772.6 c 13.81,-0.45 27.57,-0.65 41.32,-0.15 13.73,0.21 27.44,0.85 41.08,2.06 27.26,2.48 54.4,6.06 80.83,12.59 26.5,6.22 52.21,15.38 76.35,27.81 24.04,12.62 45.86,29.44 64.17,50.19 -7.53,-11.61 -16.75,-22.11 -26.74,-31.89 -10.41,-9.33 -21.73,-17.63 -33.65,-25 -24.06,-14.47 -50.67,-24.24 -77.79,-30.83 -27.19,-6.45 -54.98,-9.84 -82.76,-10.51 -27.75,-0.64 -55.58,0.71 -82.81,5.73" style="fill:#3f2d1f;fill-opacity:1;fill-rule:nonzero;stroke:none" id="path520"/>
      <path d="m 2762.5,2718.85 25.42,-1.27 c 8.32,-0.24 16.55,-0.64 24.68,-0.12 8.13,0.35 16.15,1.22 24.07,2.88 7.87,1.87 15.45,4.6 23.33,8.51 -5.13,-7.08 -12.7,-12.45 -20.95,-15.94 -8.31,-3.45 -17.21,-4.89 -26.02,-5.43 -8.84,-0.35 -17.61,0.52 -26.12,2.39 -8.49,1.88 -16.82,4.59 -24.41,8.98" style="fill:#3f2d1f;fill-opacity:1;fill-rule:nonzero;stroke:none" id="path522"/>
      <path d="m 3021.2,2983.8 c 0,-41.7 -37.4,-70 -93.7,-78.7 -26.9,-4.2 -52.1,3.4 -70.2,17.5 -16.7,13.1 -27.3,31.8 -27.3,51.9 0,33.9 28,62.6 66.7,72.2 8.9,2.2 18.4,3.4 28.3,3.4 52.5,0 96.2,-24.5 96.2,-66.3" style="fill:#f5f5f5;fill-opacity:1;fill-rule:nonzero;stroke:none" id="path524"/>
      <path d="m 2912.5,2995.7 c 0,-7.6 -0.9,-15 -2.6,-21.9 -7,-29.5 -27.9,-51 -52.6,-51.2 -15.1,11.9 -25.2,28.3 -27,46.2 -0.2,1.9 -0.3,3.8 -0.3,5.7 0,33.9 28,62.6 66.7,72.2 9.8,-13.1 15.8,-31.1 15.8,-51" style="fill:#6aa742;fill-opacity:1;fill-rule:nonzero;stroke:none" id="path526"/>
      <path d="m 2909.9,2973.8 c -7,-29.5 -27.9,-51 -52.6,-51.2 -15.1,11.9 -25.2,28.3 -27,46.2 17.1,-13.1 46.1,-24.6 79.6,5" style="fill:#508739;fill-opacity:1;fill-rule:nonzero;stroke:none" id="path528"/>
      <path d="m 2849.17,3025.1 c 0,0 18.34,58.33 90.83,40 54.87,-13.88 84.16,-50.83 110.83,-40 0,0 -8.34,-25.83 -29.17,-51.67 0,0 -0.93,61.11 -77.5,71.67 -72.49,10 -94.99,-20 -94.99,-20" style="fill:#3f2d1f;fill-opacity:1;fill-rule:nonzero;stroke:none" id="path530"/>
      <path d="m 2849.17,3025.1 4.77,-1.5 0.01,0.04 c 0.28,0.87 3.87,11.11 12.97,20.86 9.16,9.74 23.43,19.12 46.46,19.16 7.48,0 15.91,-1.01 25.39,-3.41 23.3,-5.89 41.94,-16.09 58.06,-25.05 16.14,-8.88 29.61,-16.92 43.84,-17.06 4.04,-0.01 8.1,0.72 12.04,2.33 l -1.88,4.63 -4.76,1.54 -0.35,-1.03 c -1.75,-4.96 -10.25,-27.1 -27.95,-49.04 l 3.89,-3.14 5,0.08 c -0.03,0.51 -0.27,16.59 -10.73,34.34 -10.4,17.77 -31.49,36.83 -71.09,42.2 -10.56,1.46 -20.13,2.09 -28.77,2.09 -51.88,0.09 -70.26,-23.03 -70.9,-24.04 l 4,-3 4.77,-1.5 -4.77,1.5 4,-3 -1.24,0.93 1.22,-0.96 0.02,0.03 -1.24,0.93 1.22,-0.96 c 0.35,0.3 15.58,19.99 62.92,20.07 8.16,0 17.26,-0.59 27.41,-1.99 36.97,-5.19 54.63,-21.97 63.84,-37.39 4.57,-7.73 6.92,-15.19 8.11,-20.68 0.6,-2.74 0.91,-4.99 1.07,-6.51 l 0.14,-1.73 0.02,-0.41 v -0.07 l 0.21,-13.83 8.68,10.77 c 21.43,26.6 29.91,52.92 30.04,53.26 l 3.29,10.21 -9.93,-4.04 c -2.73,-1.1 -5.41,-1.59 -8.28,-1.59 -10,-0.14 -22.85,6.72 -38.98,15.8 -16.16,8.98 -35.74,19.75 -60.46,26.01 -10.21,2.58 -19.47,3.71 -27.85,3.71 -26.75,0.06 -44.39,-11.74 -54.78,-23.44 -10.44,-11.71 -14.06,-23.21 -14.2,-23.62 l -8.77,-27.88 17.54,23.38 -4,3" style="fill:#3f2d1f;fill-opacity:1;fill-rule:nonzero;stroke:none" id="path532"/>
      <path d="m 2877.5,3003.85 c 0,-8.97 -5.31,-16.25 -11.87,-16.25 -6.57,0 -11.88,7.28 -11.88,16.25 0,8.97 5.31,16.25 11.88,16.25 6.56,0 11.87,-7.28 11.87,-16.25" style="fill:#f5f5f5;fill-opacity:1;fill-rule:nonzero;stroke:none" id="path534"/>
      <path d="m 2656.2,2984.6 c 0,-37.4 -35.5,-69.3 -75.8,-62.1 -12.9,2.3 -24.5,6.1 -34.5,11.4 -23.9,12.4 -38.4,32.7 -38.4,59.1 0,32.7 26.1,53.6 60,58.3 4.8,0.7 9.8,1 14.9,1 40.8,0 73.8,-30.3 73.8,-67.7" style="fill:#f5f5f5;fill-opacity:1;fill-rule:nonzero;stroke:none" id="path536"/>
      <path d="m 2578.8,3003.8 c 0,-10.3 -1.4,-20.1 -3.9,-29 -5.4,-19.2 -15.9,-34.2 -29,-40.9 -22.8,11.8 -37.1,30.9 -38.3,55.6 -0.1,1.2 -0.1,2.3 -0.1,3.5 0,32.7 26.1,53.6 60,58.3 7,-12.9 11.3,-29.4 11.3,-47.5" style="fill:#6aa742;fill-opacity:1;fill-rule:nonzero;stroke:none" id="path538"/>
      <path d="m 2574.9,2974.8 c -5.4,-19.2 -15.9,-34.2 -29,-40.9 -22.8,11.8 -37.1,30.9 -38.3,55.6 10.4,-14.4 30.4,-28.4 67.3,-14.7" style="fill:#508739;fill-opacity:1;fill-rule:nonzero;stroke:none" id="path540"/>
      <path d="m 2655,2995.93 c 0,0 -2.5,64.17 -56.67,72.5 -51.14,7.87 -100,-26.66 -125,-26.66 0,0 20.84,-39.2 34.17,-48.77 0,0 -0.84,49.6 56.66,57.93 57.5,8.34 90.84,-55 90.84,-55" style="fill:#3f2d1f;fill-opacity:1;fill-rule:nonzero;stroke:none" id="path542"/>
      <path d="m 2655,2995.93 5,0.19 c -0.03,0.36 -0.65,16.89 -8.43,34.92 -3.91,9.01 -9.64,18.44 -18.16,26.24 -8.49,7.8 -19.82,13.88 -34.32,16.09 -5.5,0.85 -10.96,1.23 -16.35,1.23 -23.68,-0.02 -45.96,-7.23 -65,-14.23 -9.52,-3.51 -18.23,-6.98 -25.81,-9.52 -7.56,-2.55 -14.01,-4.11 -18.6,-4.08 h -8.32 l 3.91,-7.35 c 0.03,-0.06 5.28,-9.94 12.26,-21.1 3.49,-5.58 7.41,-11.49 11.38,-16.69 4,-5.22 7.93,-9.72 12.02,-12.69 l 8.15,-5.85 -0.23,10.02 v 0.01 c -0.02,0.85 0.19,12.51 6.76,24.46 6.65,11.93 19.08,24.46 45.62,28.4 3.31,0.48 6.53,0.71 9.65,0.71 23.64,0.02 42.61,-12.95 55.84,-26.39 6.59,-6.69 11.69,-13.43 15.11,-18.47 1.71,-2.51 3,-4.61 3.86,-6.05 l 0.95,-1.66 0.29,-0.52 10.27,-19.53 -0.85,22.05 -5,-0.19 4.42,2.33 c -0.14,0.26 -7.66,14.56 -21.92,29.06 -14.22,14.44 -35.49,29.34 -62.97,29.37 -3.6,0 -7.3,-0.26 -11.09,-0.81 -29.32,-4.16 -45.23,-19.21 -52.95,-33.49 -7.78,-14.27 -7.97,-27.45 -7.99,-29.27 v -0.23 l 5,0.11 2.92,4.06 c -2.57,1.81 -6.25,5.8 -9.91,10.63 -5.53,7.25 -11.27,16.41 -15.58,23.71 -2.15,3.65 -3.96,6.84 -5.22,9.11 -1.26,2.27 -1.96,3.6 -1.97,3.6 l -4.41,-2.34 v -5 c 6.64,0.02 13.8,1.94 21.79,4.6 23.8,8.07 55.15,23.28 87.62,23.23 4.92,0 9.87,-0.35 14.83,-1.11 12.59,-1.95 21.89,-7.02 29.09,-13.59 10.79,-9.84 16.75,-23.39 19.88,-34.58 1.57,-5.58 2.44,-10.55 2.92,-14.08 0.23,-1.77 0.37,-3.17 0.45,-4.13 l 0.08,-1.07 0.01,-0.3 5,0.19 4.42,2.33 -4.42,-2.33" style="fill:#3f2d1f;fill-opacity:1;fill-rule:nonzero;stroke:none" id="path544"/>
      <path d="m 2552.5,3010.1 c 0,-8.29 -5.6,-15 -12.5,-15 -6.9,0 -12.5,6.71 -12.5,15 0,8.29 5.6,15 12.5,15 6.9,0 12.5,-6.71 12.5,-15" style="fill:#f5f5f5;fill-opacity:1;fill-rule:nonzero;stroke:none" id="path546"/>
      <path d="m 3258.8,2850.1 c -5.4,-5.9 -10.8,-10.8 -16.2,-14.7 -66.5,-49.2 -133.8,38.4 -133.8,38.4 112,8.7 77.21,142.46 56.2,195.47 30.21,-7.3 37.53,-5.7 68.33,-15 51.67,0 26.56,1.87 26.67,1.66 25.8,-49.1 46.6,-152.93 -1.2,-205.83" style="fill:#3f2d1f;fill-opacity:1;fill-rule:nonzero;stroke:none" id="path548"/>
      <path d="m 3417.9,1685.6 -0.4,-0.5 0.4,0.5" style="fill:#593e2d;fill-opacity:1;fill-rule:nonzero;stroke:none" id="path550"/>
    </g>
  </g>
</svg>